<?xml version="1.0" encoding="utf-8"?>
<!-- Generator: Adobe Illustrator 19.2.1, SVG Export Plug-In . SVG Version: 6.00 Build 0)  -->
<svg version="1.1" id="Layer_3" xmlns="http://www.w3.org/2000/svg" xmlns:xlink="http://www.w3.org/1999/xlink" x="0px" y="0px"
	 viewBox="0 0 1728 864" style="enable-background:new 0 0 1728 864;" xml:space="preserve">
<style type="text/css">
	.st0{fill:none;stroke:#ED1F24;stroke-linecap:round;stroke-linejoin:round;stroke-miterlimit:10;}
</style>
<g id="LINE_126_">
	<path class="st0" d="M384.6,3.7H48.1L3.8,48.1v336.5l44.4,44.4h336.5l44.4-44.4V48.1L384.6,3.7z M46,394.5c-4.3,0-7.8-3.5-7.8-7.8
		c0-4.3,3.5-7.8,7.8-7.8c4.3,0,7.8,3.5,7.8,7.8C53.8,391,50.3,394.5,46,394.5z M46,53.7c-4.3,0-7.8-3.5-7.8-7.8
		c0-4.3,3.5-7.8,7.8-7.8c4.3,0,7.8,3.5,7.8,7.8C53.8,50.2,50.3,53.7,46,53.7z M386.7,394.5c-4.3,0-7.8-3.5-7.8-7.8
		c0-4.3,3.5-7.8,7.8-7.8c4.3,0,7.8,3.5,7.8,7.8C394.5,391,391,394.5,386.7,394.5z M386.7,53.7c-4.3,0-7.8-3.5-7.8-7.8
		c0-4.3,3.5-7.8,7.8-7.8c4.3,0,7.8,3.5,7.8,7.8C394.5,50.2,391,53.7,386.7,53.7z"/>
</g>
<g id="LINE_118_">
	<path class="st0" d="M811.2,3.7H474.7l-44.4,44.4v336.5l44.4,44.4h336.5l44.4-44.4V48.1L811.2,3.7z M472.6,394.5
		c-4.3,0-7.8-3.5-7.8-7.8c0-4.3,3.5-7.8,7.8-7.8c4.3,0,7.8,3.5,7.8,7.8C480.4,391,476.9,394.5,472.6,394.5z M472.6,53.7
		c-4.3,0-7.8-3.5-7.8-7.8c0-4.3,3.5-7.8,7.8-7.8c4.3,0,7.8,3.5,7.8,7.8C480.4,50.2,476.9,53.7,472.6,53.7z M813.3,394.5
		c-4.3,0-7.8-3.5-7.8-7.8c0-4.3,3.5-7.8,7.8-7.8c4.3,0,7.8,3.5,7.8,7.8C821.1,391,817.6,394.5,813.3,394.5z M813.3,53.7
		c-4.3,0-7.8-3.5-7.8-7.8c0-4.3,3.5-7.8,7.8-7.8c4.3,0,7.8,3.5,7.8,7.8C821.1,50.2,817.6,53.7,813.3,53.7z"/>
</g>
<g id="LINE_110_">
	<path class="st0" d="M1237.8,3.7H901.3L857,48.1v336.5l44.4,44.4h336.5l44.4-44.4V48.1L1237.8,3.7z M899.2,394.5
		c-4.3,0-7.8-3.5-7.8-7.8c0-4.3,3.5-7.8,7.8-7.8c4.3,0,7.8,3.5,7.8,7.8C907,391,903.5,394.5,899.2,394.5z M899.2,53.7
		c-4.3,0-7.8-3.5-7.8-7.8c0-4.3,3.5-7.8,7.8-7.8c4.3,0,7.8,3.5,7.8,7.8C907,50.2,903.5,53.7,899.2,53.7z M1239.9,394.5
		c-4.3,0-7.8-3.5-7.8-7.8c0-4.3,3.5-7.8,7.8-7.8c4.3,0,7.8,3.5,7.8,7.8C1247.8,391,1244.3,394.5,1239.9,394.5z M1239.9,53.7
		c-4.3,0-7.8-3.5-7.8-7.8c0-4.3,3.5-7.8,7.8-7.8c4.3,0,7.8,3.5,7.8,7.8C1247.8,50.2,1244.3,53.7,1239.9,53.7z"/>
</g>
<g id="LINE_102_">
	<path class="st0" d="M1237.8,430.3H901.3L857,474.7v336.5l44.4,44.4h336.5l44.4-44.4V474.7L1237.8,430.3z M899.2,821.1
		c-4.3,0-7.8-3.5-7.8-7.8c0-4.3,3.5-7.8,7.8-7.8c4.3,0,7.8,3.5,7.8,7.8C907,817.6,903.5,821.1,899.2,821.1z M899.2,480.3
		c-4.3,0-7.8-3.5-7.8-7.8c0-4.3,3.5-7.8,7.8-7.8c4.3,0,7.8,3.5,7.8,7.8C907,476.8,903.5,480.3,899.2,480.3z M1239.9,821.1
		c-4.3,0-7.8-3.5-7.8-7.8c0-4.3,3.5-7.8,7.8-7.8c4.3,0,7.8,3.5,7.8,7.8C1247.8,817.6,1244.3,821.1,1239.9,821.1z M1239.9,480.3
		c-4.3,0-7.8-3.5-7.8-7.8c0-4.3,3.5-7.8,7.8-7.8c4.3,0,7.8,3.5,7.8,7.8C1247.8,476.8,1244.3,480.3,1239.9,480.3z"/>
</g>
<g id="LINE_94_">
	<path class="st0" d="M384.6,430.3H48.1L3.8,474.7v336.5l44.4,44.4h336.5l44.4-44.4V474.7L384.6,430.3z M46,821.1
		c-4.3,0-7.8-3.5-7.8-7.8c0-4.3,3.5-7.8,7.8-7.8c4.3,0,7.8,3.5,7.8,7.8C53.8,817.6,50.3,821.1,46,821.1z M46,480.3
		c-4.3,0-7.8-3.5-7.8-7.8c0-4.3,3.5-7.8,7.8-7.8c4.3,0,7.8,3.5,7.8,7.8C53.8,476.8,50.3,480.3,46,480.3z M386.7,821.1
		c-4.3,0-7.8-3.5-7.8-7.8c0-4.3,3.5-7.8,7.8-7.8c4.3,0,7.8,3.5,7.8,7.8C394.5,817.6,391,821.1,386.7,821.1z M386.7,480.3
		c-4.3,0-7.8-3.5-7.8-7.8c0-4.3,3.5-7.8,7.8-7.8c4.3,0,7.8,3.5,7.8,7.8C394.5,476.8,391,480.3,386.7,480.3z"/>
</g>
<g id="LINE_86_">
	<path class="st0" d="M811.2,430.3H474.7l-44.4,44.4v336.5l44.4,44.4h336.5l44.4-44.4V474.7L811.2,430.3z M472.6,821.1
		c-4.3,0-7.8-3.5-7.8-7.8c0-4.3,3.5-7.8,7.8-7.8c4.3,0,7.8,3.5,7.8,7.8C480.4,817.6,476.9,821.1,472.6,821.1z M472.6,480.3
		c-4.3,0-7.8-3.5-7.8-7.8c0-4.3,3.5-7.8,7.8-7.8c4.3,0,7.8,3.5,7.8,7.8C480.4,476.8,476.9,480.3,472.6,480.3z M813.3,821.1
		c-4.3,0-7.8-3.5-7.8-7.8c0-4.3,3.5-7.8,7.8-7.8c4.3,0,7.8,3.5,7.8,7.8C821.1,817.6,817.6,821.1,813.3,821.1z M813.3,480.3
		c-4.3,0-7.8-3.5-7.8-7.8c0-4.3,3.5-7.8,7.8-7.8c4.3,0,7.8,3.5,7.8,7.8C821.1,476.8,817.6,480.3,813.3,480.3z"/>
</g>
<g id="LINE_78_">
	<path class="st0" d="M1664.4,3.7h-336.5l-44.4,44.4v336.5l44.4,44.4h336.5l44.4-44.4V48.1L1664.4,3.7z M1325.8,394.5
		c-4.3,0-7.8-3.5-7.8-7.8c0-4.3,3.5-7.8,7.8-7.8c4.3,0,7.8,3.5,7.8,7.8C1333.6,391,1330.1,394.5,1325.8,394.5z M1325.8,53.7
		c-4.3,0-7.8-3.5-7.8-7.8c0-4.3,3.5-7.8,7.8-7.8c4.3,0,7.8,3.5,7.8,7.8C1333.6,50.2,1330.1,53.7,1325.8,53.7z M1666.6,394.5
		c-4.3,0-7.8-3.5-7.8-7.8c0-4.3,3.5-7.8,7.8-7.8c4.3,0,7.8,3.5,7.8,7.8C1674.4,391,1670.9,394.5,1666.6,394.5z M1666.6,53.7
		c-4.3,0-7.8-3.5-7.8-7.8c0-4.3,3.5-7.8,7.8-7.8c4.3,0,7.8,3.5,7.8,7.8C1674.4,50.2,1670.9,53.7,1666.6,53.7z"/>
</g>
<g id="LINE_71_">
	<path class="st0" d="M1664.4,430.3h-336.5l-44.4,44.4v336.5l44.4,44.4h336.5l44.4-44.4V474.7L1664.4,430.3z M1325.8,821.1
		c-4.3,0-7.8-3.5-7.8-7.8c0-4.3,3.5-7.8,7.8-7.8c4.3,0,7.8,3.5,7.8,7.8C1333.6,817.6,1330.1,821.1,1325.8,821.1z M1325.8,480.3
		c-4.3,0-7.8-3.5-7.8-7.8c0-4.3,3.5-7.8,7.8-7.8c4.3,0,7.8,3.5,7.8,7.8C1333.6,476.8,1330.1,480.3,1325.8,480.3z M1480.2,746.8
		c-2,0-3.7-1.6-3.7-3.7c0-2,1.7-3.7,3.7-3.7c2,0,3.7,1.7,3.7,3.7C1483.8,745.2,1482.2,746.8,1480.2,746.8z M1578.4,845
		c-2,0-3.7-1.6-3.7-3.7c0-2,1.7-3.7,3.7-3.7c2,0,3.7,1.7,3.7,3.7C1582.1,843.4,1580.4,845,1578.4,845z M1596.4,630.6
		c-2,0-3.7-1.7-3.7-3.7c0-2,1.7-3.7,3.7-3.7c2,0,3.7,1.6,3.7,3.7C1600.1,628.9,1598.4,630.6,1596.4,630.6z M1666.6,821.1
		c-4.3,0-7.8-3.5-7.8-7.8c0-4.3,3.5-7.8,7.8-7.8c4.3,0,7.8,3.5,7.8,7.8C1674.4,817.6,1670.9,821.1,1666.6,821.1z M1666.6,480.3
		c-4.3,0-7.8-3.5-7.8-7.8c0-4.3,3.5-7.8,7.8-7.8c4.3,0,7.8,3.5,7.8,7.8C1674.4,476.8,1670.9,480.3,1666.6,480.3z M1694.6,728.8
		c-2,0-3.7-1.6-3.7-3.7c0-2,1.7-3.7,3.7-3.7c2,0,3.7,1.7,3.7,3.7C1698.3,727.1,1696.7,728.8,1694.6,728.8z"/>
</g>
</svg>
