  0
SECTION
  2
HEADER
  9
$ACADVER
  1
AC1024
  9
$ACADMAINTVER
 70
     6
  9
$DWGCODEPAGE
  3
ANSI_1252
  9
$INSBASE
 10
0.0
 20
0.0
 30
0.0
  9
$EXTMIN
 10
1.000000000000000E+20
 20
1.000000000000000E+20
 30
1.000000000000000E+20
  9
$EXTMAX
 10
-1.000000000000000E+20
 20
-1.000000000000000E+20
 30
-1.000000000000000E+20
  9
$LIMMIN
 10
0.0
 20
0.0
  9
$LIMMAX
 10
12.0
 20
9.0
  9
$ORTHOMODE
 70
     0
  9
$REGENMODE
 70
     1
  9
$FILLMODE
 70
     1
  9
$QTEXTMODE
 70
     0
  9
$MIRRTEXT
 70
     1
  9
$LTSCALE
 40
1.0
  9
$ATTMODE
 70
     1
  9
$TEXTSIZE
 40
0.2
  9
$TRACEWID
 40
0.05
  9
$TEXTSTYLE
  7
Standard
  9
$CLAYER
  8
0
  9
$CELTYPE
  6
ByLayer
  9
$CECOLOR
 62
   256
  9
$CELTSCALE
 40
1.0
  9
$DISPSILH
 70
     0
  9
$DIMSCALE
 40
1.0
  9
$DIMASZ
 40
0.18
  9
$DIMEXO
 40
0.0625
  9
$DIMDLI
 40
0.38
  9
$DIMRND
 40
0.0
  9
$DIMDLE
 40
0.0
  9
$DIMEXE
 40
0.18
  9
$DIMTP
 40
0.0
  9
$DIMTM
 40
0.0
  9
$DIMTXT
 40
0.18
  9
$DIMCEN
 40
0.09
  9
$DIMTSZ
 40
0.0
  9
$DIMTOL
 70
     0
  9
$DIMLIM
 70
     0
  9
$DIMTIH
 70
     1
  9
$DIMTOH
 70
     1
  9
$DIMSE1
 70
     0
  9
$DIMSE2
 70
     0
  9
$DIMTAD
 70
     0
  9
$DIMZIN
 70
     0
  9
$DIMBLK
  1

  9
$DIMASO
 70
     1
  9
$DIMSHO
 70
     1
  9
$DIMPOST
  1

  9
$DIMAPOST
  1

  9
$DIMALT
 70
     0
  9
$DIMALTD
 70
     2
  9
$DIMALTF
 40
25.4
  9
$DIMLFAC
 40
1.0
  9
$DIMTOFL
 70
     0
  9
$DIMTVP
 40
0.0
  9
$DIMTIX
 70
     0
  9
$DIMSOXD
 70
     0
  9
$DIMSAH
 70
     0
  9
$DIMBLK1
  1

  9
$DIMBLK2
  1

  9
$DIMSTYLE
  2
Standard
  9
$DIMCLRD
 70
     0
  9
$DIMCLRE
 70
     0
  9
$DIMCLRT
 70
     0
  9
$DIMTFAC
 40
1.0
  9
$DIMGAP
 40
0.09
  9
$DIMJUST
 70
     0
  9
$DIMSD1
 70
     0
  9
$DIMSD2
 70
     0
  9
$DIMTOLJ
 70
     1
  9
$DIMTZIN
 70
     0
  9
$DIMALTZ
 70
     0
  9
$DIMALTTZ
 70
     0
  9
$DIMUPT
 70
     0
  9
$DIMDEC
 70
     4
  9
$DIMTDEC
 70
     4
  9
$DIMALTU
 70
     2
  9
$DIMALTTD
 70
     2
  9
$DIMTXSTY
  7
Standard
  9
$DIMAUNIT
 70
     0
  9
$DIMADEC
 70
     0
  9
$DIMALTRND
 40
0.0
  9
$DIMAZIN
 70
     0
  9
$DIMDSEP
 70
    46
  9
$DIMATFIT
 70
     3
  9
$DIMFRAC
 70
     0
  9
$DIMLDRBLK
  1

  9
$DIMLUNIT
 70
     2
  9
$DIMLWD
 70
    -2
  9
$DIMLWE
 70
    -2
  9
$DIMTMOVE
 70
     0
  9
$DIMFXL
 40
1.0
  9
$DIMFXLON
 70
     0
  9
$DIMJOGANG
 40
0.7853981633974483
  9
$DIMTFILL
 70
     0
  9
$DIMTFILLCLR
 70
     0
  9
$DIMARCSYM
 70
     0
  9
$DIMLTYPE
  6

  9
$DIMLTEX1
  6

  9
$DIMLTEX2
  6

  9
$DIMTXTDIRECTION
 70
     0
  9
$LUNITS
 70
     2
  9
$LUPREC
 70
     4
  9
$SKETCHINC
 40
0.1
  9
$FILLETRAD
 40
0.5
  9
$AUNITS
 70
     0
  9
$AUPREC
 70
     0
  9
$MENU
  1
.
  9
$ELEVATION
 40
0.0
  9
$PELEVATION
 40
0.0
  9
$THICKNESS
 40
0.0
  9
$LIMCHECK
 70
     0
  9
$CHAMFERA
 40
0.5
  9
$CHAMFERB
 40
0.5
  9
$CHAMFERC
 40
1.0
  9
$CHAMFERD
 40
0.0
  9
$SKPOLY
 70
     0
  9
$TDCREATE
 40
2457758.005569097
  9
$TDUCREATE
 40
2457758.213902431
  9
$TDUPDATE
 40
2457758.00556934
  9
$TDUUPDATE
 40
2457758.213902674
  9
$TDINDWG
 40
0.0000000116
  9
$TDUSRTIMER
 40
0.0000000116
  9
$USRTIMER
 70
     1
  9
$ANGBASE
 50
0.0
  9
$ANGDIR
 70
     0
  9
$PDMODE
 70
     0
  9
$PDSIZE
 40
0.0
  9
$PLINEWID
 40
0.0
  9
$SPLFRAME
 70
     0
  9
$SPLINETYPE
 70
     6
  9
$SPLINESEGS
 70
     8
  9
$HANDSEED
  5
F8
  9
$SURFTAB1
 70
     6
  9
$SURFTAB2
 70
     6
  9
$SURFTYPE
 70
     6
  9
$SURFU
 70
     6
  9
$SURFV
 70
     6
  9
$UCSBASE
  2

  9
$UCSNAME
  2

  9
$UCSORG
 10
0.0
 20
0.0
 30
0.0
  9
$UCSXDIR
 10
1.0
 20
0.0
 30
0.0
  9
$UCSYDIR
 10
0.0
 20
1.0
 30
0.0
  9
$UCSORTHOREF
  2

  9
$UCSORTHOVIEW
 70
     0
  9
$UCSORGTOP
 10
0.0
 20
0.0
 30
0.0
  9
$UCSORGBOTTOM
 10
0.0
 20
0.0
 30
0.0
  9
$UCSORGLEFT
 10
0.0
 20
0.0
 30
0.0
  9
$UCSORGRIGHT
 10
0.0
 20
0.0
 30
0.0
  9
$UCSORGFRONT
 10
0.0
 20
0.0
 30
0.0
  9
$UCSORGBACK
 10
0.0
 20
0.0
 30
0.0
  9
$PUCSBASE
  2

  9
$PUCSNAME
  2

  9
$PUCSORG
 10
0.0
 20
0.0
 30
0.0
  9
$PUCSXDIR
 10
1.0
 20
0.0
 30
0.0
  9
$PUCSYDIR
 10
0.0
 20
1.0
 30
0.0
  9
$PUCSORTHOREF
  2

  9
$PUCSORTHOVIEW
 70
     0
  9
$PUCSORGTOP
 10
0.0
 20
0.0
 30
0.0
  9
$PUCSORGBOTTOM
 10
0.0
 20
0.0
 30
0.0
  9
$PUCSORGLEFT
 10
0.0
 20
0.0
 30
0.0
  9
$PUCSORGRIGHT
 10
0.0
 20
0.0
 30
0.0
  9
$PUCSORGFRONT
 10
0.0
 20
0.0
 30
0.0
  9
$PUCSORGBACK
 10
0.0
 20
0.0
 30
0.0
  9
$USERI1
 70
     0
  9
$USERI2
 70
     0
  9
$USERI3
 70
     0
  9
$USERI4
 70
     0
  9
$USERI5
 70
     0
  9
$USERR1
 40
0.0
  9
$USERR2
 40
0.0
  9
$USERR3
 40
0.0
  9
$USERR4
 40
0.0
  9
$USERR5
 40
0.0
  9
$WORLDVIEW
 70
     1
  9
$SHADEDGE
 70
     3
  9
$SHADEDIF
 70
    70
  9
$TILEMODE
 70
     1
  9
$MAXACTVP
 70
    64
  9
$PINSBASE
 10
0.0
 20
0.0
 30
0.0
  9
$PLIMCHECK
 70
     0
  9
$PEXTMIN
 10
1.000000000000000E+20
 20
1.000000000000000E+20
 30
1.000000000000000E+20
  9
$PEXTMAX
 10
-1.000000000000000E+20
 20
-1.000000000000000E+20
 30
-1.000000000000000E+20
  9
$PLIMMIN
 10
0.0
 20
0.0
  9
$PLIMMAX
 10
12.0
 20
9.0
  9
$UNITMODE
 70
     0
  9
$VISRETAIN
 70
     1
  9
$PLINEGEN
 70
     0
  9
$PSLTSCALE
 70
     1
  9
$TREEDEPTH
 70
  3020
  9
$CMLSTYLE
  2
Standard
  9
$CMLJUST
 70
     0
  9
$CMLSCALE
 40
1.0
  9
$PROXYGRAPHICS
 70
     1
  9
$MEASUREMENT
 70
     0
  9
$CELWEIGHT
370
    -1
  9
$ENDCAPS
280
     0
  9
$JOINSTYLE
280
     0
  9
$LWDISPLAY
290
     1
  9
$INSUNITS
 70
     1
  9
$HYPERLINKBASE
  1

  9
$STYLESHEET
  1

  9
$XEDIT
290
     1
  9
$CEPSNTYPE
380
     0
  9
$PSTYLEMODE
290
     1
  9
$FINGERPRINTGUID
  2
{6B9294F4-0EDC-4F20-98A3-EAC85038728C}
  9
$VERSIONGUID
  2
{FAEB1C32-E019-11D5-929B-00C0DF256EC4}
  9
$EXTNAMES
290
     1
  9
$PSVPSCALE
 40
0.0
  9
$OLESTARTUP
290
     0
  9
$SORTENTS
280
   127
  9
$INDEXCTL
280
     0
  9
$HIDETEXT
280
     1
  9
$XCLIPFRAME
280
     2
  9
$HALOGAP
280
     0
  9
$OBSCOLOR
 70
   257
  9
$OBSLTYPE
280
     0
  9
$INTERSECTIONDISPLAY
280
     0
  9
$INTERSECTIONCOLOR
 70
   257
  9
$DIMASSOC
280
     2
  9
$PROJECTNAME
  1

  9
$CAMERADISPLAY
290
     0
  9
$LENSLENGTH
 40
50.0
  9
$CAMERAHEIGHT
 40
0.0
  9
$STEPSPERSEC
 40
2.0
  9
$STEPSIZE
 40
6.0
  9
$3DDWFPREC
 40
2.0
  9
$PSOLWIDTH
 40
0.25
  9
$PSOLHEIGHT
 40
4.0
  9
$LOFTANG1
 40
1.570796326794897
  9
$LOFTANG2
 40
1.570796326794897
  9
$LOFTMAG1
 40
0.0
  9
$LOFTMAG2
 40
0.0
  9
$LOFTPARAM
 70
     7
  9
$LOFTNORMALS
280
     1
  9
$LATITUDE
 40
37.795
  9
$LONGITUDE
 40
-122.394
  9
$NORTHDIRECTION
 40
0.0
  9
$TIMEZONE
 70
 -8000
  9
$LIGHTGLYPHDISPLAY
280
     1
  9
$TILEMODELIGHTSYNCH
280
     1
  9
$CMATERIAL
347
3C
  9
$SOLIDHIST
280
     1
  9
$SHOWHIST
280
     1
  9
$DWFFRAME
280
     2
  9
$DGNFRAME
280
     2
  9
$REALWORLDSCALE
290
     1
  9
$INTERFERECOLOR
 62
   256
  9
$CSHADOW
280
     0
  9
$SHADOWPLANELOCATION
 40
0.0
  0
ENDSEC
  0
SECTION
  2
CLASSES
  0
CLASS
  1
ACDBDICTIONARYWDFLT
  2
AcDbDictionaryWithDefault
  3
ObjectDBX Classes
 90
        0
 91
        4
280
     0
281
     0
  0
CLASS
  1
VISUALSTYLE
  2
AcDbVisualStyle
  3
ObjectDBX Classes
 90
     4095
 91
        4
280
     0
281
     0
  0
CLASS
  1
MATERIAL
  2
AcDbMaterial
  3
ObjectDBX Classes
 90
     1153
 91
        4
280
     0
281
     0
  0
CLASS
  1
SUN
  2
AcDbSun
  3
SCENEOE
 90
     1024
 91
        4
280
     0
281
     0
  0
ENDSEC
  0
SECTION
  2
TABLES
  0
TABLE
  2
VPORT
  5
8
330
0
100
AcDbSymbolTable
 70
     1
  0
VPORT
  5
29
330
8
100
AcDbSymbolTableRecord
100
AcDbViewportTableRecord
  2
*Active
 70
     0
 10
0.0
 20
0.0
 11
1.0
 21
1.0
 12
0.0
 22
0.0
 13
0.0
 23
0.0
 14
0.5
 24
0.5
 15
0.5
 25
0.5
 16
0.0
 26
0.0
 36
1.0
 17
11.999999997
 27
-5.9999999985
 37
0.0
 40
11.999999997
 41
2.0
 42
50.0
 43
0.0
 44
0.0
 50
0.0
 51
0.0
 71
     0
 72
   100
 73
     1
 74
     3
 75
     0
 76
     0
 77
     0
 78
     0
281
     0
 65
     1
110
0.0
120
0.0
130
0.0
111
1.0
121
0.0
131
0.0
112
0.0
122
1.0
132
0.0
 79
     0
146
0.0
 60
     3
 61
     5
292
     1
282
     1
141
0.0
142
0.0
 63
   250
361
3F
  0
ENDTAB
  0
TABLE
  2
LTYPE
  5
5
330
0
100
AcDbSymbolTable
 70
     1
  0
LTYPE
  5
14
330
5
100
AcDbSymbolTableRecord
100
AcDbLinetypeTableRecord
  2
ByBlock
 70
     0
  3

 72
    65
 73
     0
 40
0.0
  0
LTYPE
  5
15
330
5
100
AcDbSymbolTableRecord
100
AcDbLinetypeTableRecord
  2
ByLayer
 70
     0
  3

 72
    65
 73
     0
 40
0.0
  0
LTYPE
  5
16
330
5
100
AcDbSymbolTableRecord
100
AcDbLinetypeTableRecord
  2
Continuous
 70
     0
  3
Solid line
 72
    65
 73
     0
 40
0.0
  0
ENDTAB
  0
TABLE
  2
LAYER
  5
2
330
0
100
AcDbSymbolTable
 70
     3
  0
LAYER
  5
10
330
2
100
AcDbSymbolTableRecord
100
AcDbLayerTableRecord
  2
0
 70
     0
 62
     7
  6
Continuous
370
    -3
390
F
347
3E
  0
LAYER
  5
40
330
2
100
AcDbSymbolTableRecord
100
AcDbLayerTableRecord
  2
Layer 3
 70
     0
 62
     7
  6
Continuous
370
    -3
390
F
347
3E
  0
LAYER
  5
DD
330
2
100
AcDbSymbolTableRecord
100
AcDbLayerTableRecord
  2
Layer 4
 70
     0
 62
     7
  6
Continuous
370
    -3
390
F
347
3E
  0
ENDTAB
  0
TABLE
  2
STYLE
  5
3
330
0
100
AcDbSymbolTable
 70
     1
  0
STYLE
  5
11
330
3
100
AcDbSymbolTableRecord
100
AcDbTextStyleTableRecord
  2
Standard
 70
     0
 40
0.0
 41
1.0
 50
0.0
 71
     0
 42
0.2
  3
txt
  4

  0
ENDTAB
  0
TABLE
  2
VIEW
  5
6
330
0
100
AcDbSymbolTable
 70
     0
  0
ENDTAB
  0
TABLE
  2
UCS
  5
7
330
0
100
AcDbSymbolTable
 70
     0
  0
ENDTAB
  0
TABLE
  2
APPID
  5
9
330
0
100
AcDbSymbolTable
 70
     1
  0
APPID
  5
12
330
9
100
AcDbSymbolTableRecord
100
AcDbRegAppTableRecord
  2
ACAD
 70
     0
  0
ENDTAB
  0
TABLE
  2
DIMSTYLE
  5
A
330
0
100
AcDbSymbolTable
 70
     1
100
AcDbDimStyleTable
  0
DIMSTYLE
105
27
330
A
100
AcDbSymbolTableRecord
100
AcDbDimStyleTableRecord
  2
Standard
 70
     0
178
     0
340
11
  0
ENDTAB
  0
TABLE
  2
BLOCK_RECORD
  5
1
330
0
100
AcDbSymbolTable
 70
    14
  0
BLOCK_RECORD
  5
1F
330
1
100
AcDbSymbolTableRecord
100
AcDbBlockTableRecord
  2
*Model_Space
340
22
 70
     0
280
     1
281
     0
  0
BLOCK_RECORD
  5
1B
330
1
100
AcDbSymbolTableRecord
100
AcDbBlockTableRecord
  2
*Paper_Space
340
1E
 70
     0
280
     1
281
     0
  0
BLOCK_RECORD
  5
23
330
1
100
AcDbSymbolTableRecord
100
AcDbBlockTableRecord
  2
*Paper_Space0
340
26
 70
     0
280
     1
281
     0
  0
BLOCK_RECORD
  5
41
330
1
100
AcDbSymbolTableRecord
100
AcDbBlockTableRecord
  2
block 2
340
0
102
{BLKREFS
331
42
102
}
 70
     0
280
     1
281
     0
  0
BLOCK_RECORD
  5
54
330
1
100
AcDbSymbolTableRecord
100
AcDbBlockTableRecord
  2
block 3
340
0
102
{BLKREFS
331
55
102
}
 70
     0
280
     1
281
     0
  0
BLOCK_RECORD
  5
67
330
1
100
AcDbSymbolTableRecord
100
AcDbBlockTableRecord
  2
block 4
340
0
102
{BLKREFS
331
68
102
}
 70
     0
280
     1
281
     0
  0
BLOCK_RECORD
  5
7A
330
1
100
AcDbSymbolTableRecord
100
AcDbBlockTableRecord
  2
block 5
340
0
102
{BLKREFS
331
7B
102
}
 70
     0
280
     1
281
     0
  0
BLOCK_RECORD
  5
8D
330
1
100
AcDbSymbolTableRecord
100
AcDbBlockTableRecord
  2
block 6
340
0
102
{BLKREFS
331
8E
102
}
 70
     0
280
     1
281
     0
  0
BLOCK_RECORD
  5
A0
330
1
100
AcDbSymbolTableRecord
100
AcDbBlockTableRecord
  2
block 7
340
0
102
{BLKREFS
331
A1
102
}
 70
     0
280
     1
281
     0
  0
BLOCK_RECORD
  5
B3
330
1
100
AcDbSymbolTableRecord
100
AcDbBlockTableRecord
  2
block 8
340
0
102
{BLKREFS
331
B4
102
}
 70
     0
280
     1
281
     0
  0
BLOCK_RECORD
  5
C6
330
1
100
AcDbSymbolTableRecord
100
AcDbBlockTableRecord
  2
block 9
340
0
102
{BLKREFS
331
C7
102
}
 70
     0
280
     1
281
     0
  0
BLOCK_RECORD
  5
DE
330
1
100
AcDbSymbolTableRecord
100
AcDbBlockTableRecord
  2
block 10
340
0
102
{BLKREFS
331
DF
102
}
 70
     0
280
     1
281
     0
  0
BLOCK_RECORD
  5
E3
330
1
100
AcDbSymbolTableRecord
100
AcDbBlockTableRecord
  2
block 11
340
0
102
{BLKREFS
331
E4
102
}
 70
     0
280
     1
281
     0
  0
BLOCK_RECORD
  5
E7
330
1
100
AcDbSymbolTableRecord
100
AcDbBlockTableRecord
  2
block 12
340
0
102
{BLKREFS
331
E8
102
}
 70
     0
280
     1
281
     0
  0
BLOCK_RECORD
  5
ED
330
1
100
AcDbSymbolTableRecord
100
AcDbBlockTableRecord
  2
block 13
340
0
102
{BLKREFS
331
EE
102
}
 70
     0
280
     1
281
     0
  0
BLOCK_RECORD
  5
F1
330
1
100
AcDbSymbolTableRecord
100
AcDbBlockTableRecord
  2
block 14
340
0
102
{BLKREFS
331
F2
102
}
 70
     0
280
     1
281
     0
  0
ENDTAB
  0
ENDSEC
  0
SECTION
  2
BLOCKS
  0
BLOCK
  5
20
330
1F
100
AcDbEntity
  8
0
100
AcDbBlockBegin
  2
*Model_Space
 70
     0
 10
0.0
 20
0.0
 30
0.0
  3
*Model_Space
  1

  0
ENDBLK
  5
21
330
1F
100
AcDbEntity
  8
0
100
AcDbBlockEnd
  0
BLOCK
  5
1C
330
1B
100
AcDbEntity
 67
     1
  8
0
100
AcDbBlockBegin
  2
*Paper_Space
 70
     0
 10
0.0
 20
0.0
 30
0.0
  3
*Paper_Space
  1

  0
ENDBLK
  5
1D
330
1B
100
AcDbEntity
 67
     1
  8
0
100
AcDbBlockEnd
  0
BLOCK
  5
24
330
23
100
AcDbEntity
  8
0
100
AcDbBlockBegin
  2
*Paper_Space0
 70
     0
 10
0.0
 20
0.0
 30
0.0
  3
*Paper_Space0
  1

  0
ENDBLK
  5
25
330
23
100
AcDbEntity
  8
0
100
AcDbBlockEnd
  0
BLOCK
  5
43
330
41
100
AcDbEntity
  8
0
100
AcDbBlockBegin
  2
block 2
 70
     0
 10
0.0
 20
0.0
 30
0.0
  3
block 2
  1

  0
POLYLINE
  5
45
330
41
100
AcDbEntity
  8
Layer 3
 62
   240
420
 15540004
370
    35
100
AcDb2dPolyline
 66
     1
 10
0.0
 20
0.0
 30
0.0
  0
VERTEX
  5
46
330
45
100
AcDbEntity
  8
Layer 3
 62
   240
420
 15540004
370
    35
100
AcDbVertex
100
AcDb2dVertex
 10
5.341528149435017
 20
-0.0515272352301737
 30
0.0
  0
VERTEX
  5
47
330
45
100
AcDbEntity
  8
Layer 3
 62
   240
420
 15540004
370
    35
100
AcDbVertex
100
AcDb2dVertex
 10
0.668194240826875
 20
-0.0515272352301737
 30
0.0
  0
VERTEX
  5
48
330
45
100
AcDbEntity
  8
Layer 3
 62
   240
420
 15540004
370
    35
100
AcDbVertex
100
AcDb2dVertex
 10
0.0520833333203125
 20
-0.6676389904472395
 30
0.0
  0
VERTEX
  5
49
330
45
100
AcDbEntity
  8
Layer 3
 62
   240
420
 15540004
370
    35
100
AcDbVertex
100
AcDb2dVertex
 10
0.0520833333203125
 20
-5.340833026822343
 30
0.0
  0
VERTEX
  5
4A
330
45
100
AcDbEntity
  8
Layer 3
 62
   240
420
 15540004
370
    35
100
AcDbVertex
100
AcDb2dVertex
 10
0.668194240826875
 20
-5.957082958851441
 30
0.0
  0
VERTEX
  5
4B
330
45
100
AcDbEntity
  8
Layer 3
 62
   240
420
 15540004
370
    35
100
AcDbVertex
100
AcDb2dVertex
 10
5.341528149435017
 20
-5.957082958851441
 30
0.0
  0
VERTEX
  5
4C
330
45
100
AcDbEntity
  8
Layer 3
 62
   240
420
 15540004
370
    35
100
AcDbVertex
100
AcDb2dVertex
 10
5.95763905694158
 20
-5.340833026822343
 30
0.0
  0
VERTEX
  5
4D
330
45
100
AcDbEntity
  8
Layer 3
 62
   240
420
 15540004
370
    35
100
AcDbVertex
100
AcDb2dVertex
 10
5.95763905694158
 20
-0.6676389904472395
 30
0.0
  0
VERTEX
  5
4E
330
45
100
AcDbEntity
  8
Layer 3
 62
   240
420
 15540004
370
    35
100
AcDbVertex
100
AcDb2dVertex
 10
5.341528149435017
 20
-0.0515272352301737
 30
0.0
  0
SEQEND
  5
4F
330
45
100
AcDbEntity
  8
Layer 3
 62
   240
420
 15540004
370
    35
  0
SPLINE
  5
50
330
41
100
AcDbEntity
  8
Layer 3
 62
   240
420
 15540004
370
    35
100
AcDbSpline
210
0.0
220
0.0
230
1.0
 70
    11
 71
     3
 72
    17
 73
    13
 74
     0
 42
0.0000000001
 43
0.0000000001
 12
1.0
 22
0.0
 32
0.0
 13
1.0
 23
0.0
 33
0.0
 40
0.0
 40
0.0
 40
0.0
 40
0.0
 40
1.0
 40
1.0
 40
1.0
 40
2.0
 40
2.0
 40
2.0
 40
3.0
 40
3.0
 40
3.0
 40
4.0
 40
4.0
 40
4.0
 40
4.0
 10
0.6384718151615626
 20
-5.478888616251806
 30
0.0
 10
0.5787497624963716
 20
-5.478888616251806
 30
0.0
 10
0.5302776759199479
 20
-5.430416529675382
 30
0.0
 10
0.5302776759199479
 20
-5.370555452487656
 30
0.0
 10
0.5302776759199479
 20
-5.310833399822478
 30
0.0
 10
0.5787497624963716
 20
-5.262361313246054
 30
0.0
 10
0.6384718151615626
 20
-5.262361313246054
 30
0.0
 10
0.6983337400597915
 20
-5.262361313246054
 30
0.0
 10
0.7468058266362152
 20
-5.310833399822478
 30
0.0
 10
0.7468058266362152
 20
-5.370555452487656
 30
0.0
 10
0.7468058266362152
 20
-5.430416529675382
 30
0.0
 10
0.6983337400597915
 20
-5.478888616251806
 30
0.0
 10
0.6384718151615626
 20
-5.478888616251806
 30
0.0
  0
SPLINE
  5
51
330
41
100
AcDbEntity
  8
Layer 3
 62
   240
420
 15540004
370
    35
100
AcDbSpline
210
0.0
220
0.0
230
1.0
 70
    11
 71
     3
 72
    17
 73
    13
 74
     0
 42
0.0000000001
 43
0.0000000001
 12
1.0
 22
0.0
 32
0.0
 13
1.0
 23
0.0
 33
0.0
 40
0.0
 40
0.0
 40
0.0
 40
0.0
 40
1.0
 40
1.0
 40
1.0
 40
2.0
 40
2.0
 40
2.0
 40
3.0
 40
3.0
 40
3.0
 40
4.0
 40
4.0
 40
4.0
 40
4.0
 10
0.6384718151615626
 20
-0.7462497285460764
 30
0.0
 10
0.5787497624963716
 20
-0.7462497285460764
 30
0.0
 10
0.5302776759199479
 20
-0.6977776419696528
 30
0.0
 10
0.5302776759199479
 20
-0.637916564781927
 30
0.0
 10
0.5302776759199479
 20
-0.578194512116736
 30
0.0
 10
0.5787497624963716
 20
-0.5297224255403125
 30
0.0
 10
0.6384718151615626
 20
-0.5297224255403125
 30
0.0
 10
0.6983337400597915
 20
-0.5297224255403125
 30
0.0
 10
0.7468058266362152
 20
-0.578194512116736
 30
0.0
 10
0.7468058266362152
 20
-0.637916564781927
 30
0.0
 10
0.7468058266362152
 20
-0.6977776419696528
 30
0.0
 10
0.6983337400597915
 20
-0.7462497285460764
 30
0.0
 10
0.6384718151615626
 20
-0.7462497285460764
 30
0.0
  0
SPLINE
  5
52
330
41
100
AcDbEntity
  8
Layer 3
 62
   240
420
 15540004
370
    35
100
AcDbSpline
210
0.0
220
0.0
230
1.0
 70
    11
 71
     3
 72
    17
 73
    13
 74
     0
 42
0.0000000001
 43
0.0000000001
 12
1.0
 22
0.0
 32
0.0
 13
1.0
 23
0.0
 33
0.0
 40
0.0
 40
0.0
 40
0.0
 40
0.0
 40
1.0
 40
1.0
 40
1.0
 40
2.0
 40
2.0
 40
2.0
 40
3.0
 40
3.0
 40
3.0
 40
4.0
 40
4.0
 40
4.0
 40
4.0
 10
5.371110702867291
 20
-5.478888616251806
 30
0.0
 10
5.3113886502021
 20
-5.478888616251806
 30
0.0
 10
5.262916563625677
 20
-5.430416529675382
 30
0.0
 10
5.262916563625677
 20
-5.370555452487656
 30
0.0
 10
5.262916563625677
 20
-5.310833399822478
 30
0.0
 10
5.3113886502021
 20
-5.262361313246054
 30
0.0
 10
5.371110702867291
 20
-5.262361313246054
 30
0.0
 10
5.43097262776552
 20
-5.262361313246054
 30
0.0
 10
5.479444714341944
 20
-5.310833399822478
 30
0.0
 10
5.479444714341944
 20
-5.370555452487656
 30
0.0
 10
5.479444714341944
 20
-5.430416529675382
 30
0.0
 10
5.43097262776552
 20
-5.478888616251806
 30
0.0
 10
5.371110702867291
 20
-5.478888616251806
 30
0.0
  0
SPLINE
  5
53
330
41
100
AcDbEntity
  8
Layer 3
 62
   240
420
 15540004
370
    35
100
AcDbSpline
210
0.0
220
0.0
230
1.0
 70
    11
 71
     3
 72
    17
 73
    13
 74
     0
 42
0.0000000001
 43
0.0000000001
 12
1.0
 22
0.0
 32
0.0
 13
1.0
 23
0.0
 33
0.0
 40
0.0
 40
0.0
 40
0.0
 40
0.0
 40
1.0
 40
1.0
 40
1.0
 40
2.0
 40
2.0
 40
2.0
 40
3.0
 40
3.0
 40
3.0
 40
4.0
 40
4.0
 40
4.0
 40
4.0
 10
5.371110702867291
 20
-0.7462497285460764
 30
0.0
 10
5.3113886502021
 20
-0.7462497285460764
 30
0.0
 10
5.262916563625677
 20
-0.6977776419696528
 30
0.0
 10
5.262916563625677
 20
-0.637916564781927
 30
0.0
 10
5.262916563625677
 20
-0.578194512116736
 30
0.0
 10
5.3113886502021
 20
-0.5297224255403125
 30
0.0
 10
5.371110702867291
 20
-0.5297224255403125
 30
0.0
 10
5.43097262776552
 20
-0.5297224255403125
 30
0.0
 10
5.479444714341944
 20
-0.578194512116736
 30
0.0
 10
5.479444714341944
 20
-0.637916564781927
 30
0.0
 10
5.479444714341944
 20
-0.6977776419696528
 30
0.0
 10
5.43097262776552
 20
-0.7462497285460764
 30
0.0
 10
5.371110702867291
 20
-0.7462497285460764
 30
0.0
  0
ENDBLK
  5
44
330
41
100
AcDbEntity
  8
0
100
AcDbBlockEnd
  0
BLOCK
  5
56
330
54
100
AcDbEntity
  8
0
100
AcDbBlockBegin
  2
block 3
 70
     0
 10
0.0
 20
0.0
 30
0.0
  3
block 3
  1

  0
POLYLINE
  5
58
330
54
100
AcDbEntity
  8
Layer 3
 62
   240
420
 15540004
370
    35
100
AcDb2dPolyline
 66
     1
 10
0.0
 20
0.0
 30
0.0
  0
VERTEX
  5
59
330
58
100
AcDbEntity
  8
Layer 3
 62
   240
420
 15540004
370
    35
100
AcDbVertex
100
AcDb2dVertex
 10
11.2666668333921
 20
-0.0515272352301737
 30
0.0
  0
VERTEX
  5
5A
330
58
100
AcDbEntity
  8
Layer 3
 62
   240
420
 15540004
370
    35
100
AcDbVertex
100
AcDb2dVertex
 10
6.593471949306493
 20
-0.0515272352301737
 30
0.0
  0
VERTEX
  5
5B
330
58
100
AcDbEntity
  8
Layer 3
 62
   240
420
 15540004
370
    35
100
AcDbVertex
100
AcDb2dVertex
 10
5.977222017277408
 20
-0.6676389904472395
 30
0.0
  0
VERTEX
  5
5C
330
58
100
AcDbEntity
  8
Layer 3
 62
   240
420
 15540004
370
    35
100
AcDbVertex
100
AcDb2dVertex
 10
5.977222017277408
 20
-5.340833026822343
 30
0.0
  0
VERTEX
  5
5D
330
58
100
AcDbEntity
  8
Layer 3
 62
   240
420
 15540004
370
    35
100
AcDbVertex
100
AcDb2dVertex
 10
6.593471949306493
 20
-5.957082958851441
 30
0.0
  0
VERTEX
  5
5E
330
58
100
AcDbEntity
  8
Layer 3
 62
   240
420
 15540004
370
    35
100
AcDbVertex
100
AcDb2dVertex
 10
11.2666668333921
 20
-5.957082958851441
 30
0.0
  0
VERTEX
  5
5F
330
58
100
AcDbEntity
  8
Layer 3
 62
   240
420
 15540004
370
    35
100
AcDbVertex
100
AcDb2dVertex
 10
11.88277774089866
 20
-5.340833026822343
 30
0.0
  0
VERTEX
  5
60
330
58
100
AcDbEntity
  8
Layer 3
 62
   240
420
 15540004
370
    35
100
AcDbVertex
100
AcDb2dVertex
 10
11.88277774089866
 20
-0.6676389904472395
 30
0.0
  0
VERTEX
  5
61
330
58
100
AcDbEntity
  8
Layer 3
 62
   240
420
 15540004
370
    35
100
AcDbVertex
100
AcDb2dVertex
 10
11.2666668333921
 20
-0.0515272352301737
 30
0.0
  0
SEQEND
  5
62
330
58
100
AcDbEntity
  8
Layer 3
 62
   240
420
 15540004
370
    35
  0
SPLINE
  5
63
330
54
100
AcDbEntity
  8
Layer 3
 62
   240
420
 15540004
370
    35
100
AcDbSpline
210
0.0
220
0.0
230
1.0
 70
    11
 71
     3
 72
    17
 73
    13
 74
     0
 42
0.0000000001
 43
0.0000000001
 12
1.0
 22
0.0
 32
0.0
 13
1.0
 23
0.0
 33
0.0
 40
0.0
 40
0.0
 40
0.0
 40
0.0
 40
1.0
 40
1.0
 40
1.0
 40
2.0
 40
2.0
 40
2.0
 40
3.0
 40
3.0
 40
3.0
 40
4.0
 40
4.0
 40
4.0
 40
4.0
 10
6.563750371351683
 20
-5.478888616251806
 30
0.0
 10
6.503889294163958
 20
-5.478888616251806
 30
0.0
 10
6.455416359877031
 20
-5.430416529675382
 30
0.0
 10
6.455416359877031
 20
-5.370555452487656
 30
0.0
 10
6.455416359877031
 20
-5.310833399822478
 30
0.0
 10
6.503889294163958
 20
-5.262361313246054
 30
0.0
 10
6.563750371351683
 20
-5.262361313246054
 30
0.0
 10
6.623472424016887
 20
-5.262361313246054
 30
0.0
 10
6.671944510593311
 20
-5.310833399822478
 30
0.0
 10
6.671944510593311
 20
-5.370555452487656
 30
0.0
 10
6.671944510593311
 20
-5.430416529675382
 30
0.0
 10
6.623472424016887
 20
-5.478888616251806
 30
0.0
 10
6.563750371351683
 20
-5.478888616251806
 30
0.0
  0
SPLINE
  5
64
330
54
100
AcDbEntity
  8
Layer 3
 62
   240
420
 15540004
370
    35
100
AcDbSpline
210
0.0
220
0.0
230
1.0
 70
    11
 71
     3
 72
    17
 73
    13
 74
     0
 42
0.0000000001
 43
0.0000000001
 12
1.0
 22
0.0
 32
0.0
 13
1.0
 23
0.0
 33
0.0
 40
0.0
 40
0.0
 40
0.0
 40
0.0
 40
1.0
 40
1.0
 40
1.0
 40
2.0
 40
2.0
 40
2.0
 40
3.0
 40
3.0
 40
3.0
 40
4.0
 40
4.0
 40
4.0
 40
4.0
 10
6.563750371351683
 20
-0.7462497285460764
 30
0.0
 10
6.503889294163958
 20
-0.7462497285460764
 30
0.0
 10
6.455416359877031
 20
-0.6977776419696528
 30
0.0
 10
6.455416359877031
 20
-0.637916564781927
 30
0.0
 10
6.455416359877031
 20
-0.578194512116736
 30
0.0
 10
6.503889294163958
 20
-0.5297224255403125
 30
0.0
 10
6.563750371351683
 20
-0.5297224255403125
 30
0.0
 10
6.623472424016887
 20
-0.5297224255403125
 30
0.0
 10
6.671944510593311
 20
-0.578194512116736
 30
0.0
 10
6.671944510593311
 20
-0.637916564781927
 30
0.0
 10
6.671944510593311
 20
-0.6977776419696528
 30
0.0
 10
6.623472424016887
 20
-0.7462497285460764
 30
0.0
 10
6.563750371351683
 20
-0.7462497285460764
 30
0.0
  0
SPLINE
  5
65
330
54
100
AcDbEntity
  8
Layer 3
 62
   240
420
 15540004
370
    35
100
AcDbSpline
210
0.0
220
0.0
230
1.0
 70
    11
 71
     3
 72
    17
 73
    13
 74
     0
 42
0.0000000001
 43
0.0000000001
 12
1.0
 22
0.0
 32
0.0
 13
1.0
 23
0.0
 33
0.0
 40
0.0
 40
0.0
 40
0.0
 40
0.0
 40
1.0
 40
1.0
 40
1.0
 40
2.0
 40
2.0
 40
2.0
 40
3.0
 40
3.0
 40
3.0
 40
4.0
 40
4.0
 40
4.0
 40
4.0
 10
11.29638925905741
 20
-5.478888616251806
 30
0.0
 10
11.23652818186969
 20
-5.478888616251806
 30
0.0
 10
11.18805524758276
 20
-5.430416529675382
 30
0.0
 10
11.18805524758276
 20
-5.370555452487656
 30
0.0
 10
11.18805524758276
 20
-5.310833399822478
 30
0.0
 10
11.23652818186969
 20
-5.262361313246054
 30
0.0
 10
11.29638925905741
 20
-5.262361313246054
 30
0.0
 10
11.3561113117226
 20
-5.262361313246054
 30
0.0
 10
11.40458339829903
 20
-5.310833399822478
 30
0.0
 10
11.40458339829903
 20
-5.370555452487656
 30
0.0
 10
11.40458339829903
 20
-5.430416529675382
 30
0.0
 10
11.3561113117226
 20
-5.478888616251806
 30
0.0
 10
11.29638925905741
 20
-5.478888616251806
 30
0.0
  0
SPLINE
  5
66
330
54
100
AcDbEntity
  8
Layer 3
 62
   240
420
 15540004
370
    35
100
AcDbSpline
210
0.0
220
0.0
230
1.0
 70
    11
 71
     3
 72
    17
 73
    13
 74
     0
 42
0.0000000001
 43
0.0000000001
 12
1.0
 22
0.0
 32
0.0
 13
1.0
 23
0.0
 33
0.0
 40
0.0
 40
0.0
 40
0.0
 40
0.0
 40
1.0
 40
1.0
 40
1.0
 40
2.0
 40
2.0
 40
2.0
 40
3.0
 40
3.0
 40
3.0
 40
4.0
 40
4.0
 40
4.0
 40
4.0
 10
11.29638925905741
 20
-0.7462497285460764
 30
0.0
 10
11.23652818186969
 20
-0.7462497285460764
 30
0.0
 10
11.18805524758276
 20
-0.6977776419696528
 30
0.0
 10
11.18805524758276
 20
-0.637916564781927
 30
0.0
 10
11.18805524758276
 20
-0.578194512116736
 30
0.0
 10
11.23652818186969
 20
-0.5297224255403125
 30
0.0
 10
11.29638925905741
 20
-0.5297224255403125
 30
0.0
 10
11.3561113117226
 20
-0.5297224255403125
 30
0.0
 10
11.40458339829903
 20
-0.578194512116736
 30
0.0
 10
11.40458339829903
 20
-0.637916564781927
 30
0.0
 10
11.40458339829903
 20
-0.6977776419696528
 30
0.0
 10
11.3561113117226
 20
-0.7462497285460764
 30
0.0
 10
11.29638925905741
 20
-0.7462497285460764
 30
0.0
  0
ENDBLK
  5
57
330
54
100
AcDbEntity
  8
0
100
AcDbBlockEnd
  0
BLOCK
  5
69
330
67
100
AcDbEntity
  8
0
100
AcDbBlockBegin
  2
block 4
 70
     0
 10
0.0
 20
0.0
 30
0.0
  3
block 4
  1

  0
POLYLINE
  5
6B
330
67
100
AcDbEntity
  8
Layer 3
 62
   240
420
 15540004
370
    35
100
AcDb2dPolyline
 66
     1
 10
0.0
 20
0.0
 30
0.0
  0
VERTEX
  5
6C
330
6B
100
AcDbEntity
  8
Layer 3
 62
   240
420
 15540004
370
    35
100
AcDbVertex
100
AcDb2dVertex
 10
17.19180636505969
 20
-0.0515272352301737
 30
0.0
  0
VERTEX
  5
6D
330
6B
100
AcDbEntity
  8
Layer 3
 62
   240
420
 15540004
370
    35
100
AcDbVertex
100
AcDb2dVertex
 10
12.51861148097408
 20
-0.0515272352301737
 30
0.0
  0
VERTEX
  5
6E
330
6B
100
AcDbEntity
  8
Layer 3
 62
   240
420
 15540004
370
    35
100
AcDbVertex
100
AcDb2dVertex
 10
11.90249972575701
 20
-0.6676389904472395
 30
0.0
  0
VERTEX
  5
6F
330
6B
100
AcDbEntity
  8
Layer 3
 62
   240
420
 15540004
370
    35
100
AcDbVertex
100
AcDb2dVertex
 10
11.90249972575701
 20
-5.340833026822343
 30
0.0
  0
VERTEX
  5
70
330
6B
100
AcDbEntity
  8
Layer 3
 62
   240
420
 15540004
370
    35
100
AcDbVertex
100
AcDb2dVertex
 10
12.51861148097408
 20
-5.957082958851441
 30
0.0
  0
VERTEX
  5
71
330
6B
100
AcDbEntity
  8
Layer 3
 62
   240
420
 15540004
370
    35
100
AcDbVertex
100
AcDb2dVertex
 10
17.19180636505969
 20
-5.957082958851441
 30
0.0
  0
VERTEX
  5
72
330
6B
100
AcDbEntity
  8
Layer 3
 62
   240
420
 15540004
370
    35
100
AcDbVertex
100
AcDb2dVertex
 10
17.80805460166785
 20
-5.340833026822343
 30
0.0
  0
VERTEX
  5
73
330
6B
100
AcDbEntity
  8
Layer 3
 62
   240
420
 15540004
370
    35
100
AcDbVertex
100
AcDb2dVertex
 10
17.80805460166785
 20
-0.6676389904472395
 30
0.0
  0
VERTEX
  5
74
330
6B
100
AcDbEntity
  8
Layer 3
 62
   240
420
 15540004
370
    35
100
AcDbVertex
100
AcDb2dVertex
 10
17.19180636505969
 20
-0.0515272352301737
 30
0.0
  0
SEQEND
  5
75
330
6B
100
AcDbEntity
  8
Layer 3
 62
   240
420
 15540004
370
    35
  0
SPLINE
  5
76
330
67
100
AcDbEntity
  8
Layer 3
 62
   240
420
 15540004
370
    35
100
AcDbSpline
210
0.0
220
0.0
230
1.0
 70
    11
 71
     3
 72
    17
 73
    13
 74
     0
 42
0.0000000001
 43
0.0000000001
 12
1.0
 22
0.0
 32
0.0
 13
1.0
 23
0.0
 33
0.0
 40
0.0
 40
0.0
 40
0.0
 40
0.0
 40
1.0
 40
1.0
 40
1.0
 40
2.0
 40
2.0
 40
2.0
 40
3.0
 40
3.0
 40
3.0
 40
4.0
 40
4.0
 40
4.0
 40
4.0
 10
12.48888905530877
 20
-5.478888616251806
 30
0.0
 10
12.42916700264358
 20
-5.478888616251806
 30
0.0
 10
12.38069406835665
 20
-5.430416529675382
 30
0.0
 10
12.38069406835665
 20
-5.370555452487656
 30
0.0
 10
12.38069406835665
 20
-5.310833399822478
 30
0.0
 10
12.42916700264358
 20
-5.262361313246054
 30
0.0
 10
12.48888905530877
 20
-5.262361313246054
 30
0.0
 10
12.54875013249649
 20
-5.262361313246054
 30
0.0
 10
12.59722221907291
 20
-5.310833399822478
 30
0.0
 10
12.59722221907291
 20
-5.370555452487656
 30
0.0
 10
12.59722221907291
 20
-5.430416529675382
 30
0.0
 10
12.54875013249649
 20
-5.478888616251806
 30
0.0
 10
12.48888905530877
 20
-5.478888616251806
 30
0.0
  0
SPLINE
  5
77
330
67
100
AcDbEntity
  8
Layer 3
 62
   240
420
 15540004
370
    35
100
AcDbSpline
210
0.0
220
0.0
230
1.0
 70
    11
 71
     3
 72
    17
 73
    13
 74
     0
 42
0.0000000001
 43
0.0000000001
 12
1.0
 22
0.0
 32
0.0
 13
1.0
 23
0.0
 33
0.0
 40
0.0
 40
0.0
 40
0.0
 40
0.0
 40
1.0
 40
1.0
 40
1.0
 40
2.0
 40
2.0
 40
2.0
 40
3.0
 40
3.0
 40
3.0
 40
4.0
 40
4.0
 40
4.0
 40
4.0
 10
12.48888905530877
 20
-0.7462497285460764
 30
0.0
 10
12.42916700264358
 20
-0.7462497285460764
 30
0.0
 10
12.38069406835665
 20
-0.6977776419696528
 30
0.0
 10
12.38069406835665
 20
-0.637916564781927
 30
0.0
 10
12.38069406835665
 20
-0.578194512116736
 30
0.0
 10
12.42916700264358
 20
-0.5297224255403125
 30
0.0
 10
12.48888905530877
 20
-0.5297224255403125
 30
0.0
 10
12.54875013249649
 20
-0.5297224255403125
 30
0.0
 10
12.59722221907291
 20
-0.578194512116736
 30
0.0
 10
12.59722221907291
 20
-0.637916564781927
 30
0.0
 10
12.59722221907291
 20
-0.6977776419696528
 30
0.0
 10
12.54875013249649
 20
-0.7462497285460764
 30
0.0
 10
12.48888905530877
 20
-0.7462497285460764
 30
0.0
  0
SPLINE
  5
78
330
67
100
AcDbEntity
  8
Layer 3
 62
   240
420
 15540004
370
    35
100
AcDbSpline
210
0.0
220
0.0
230
1.0
 70
    11
 71
     3
 72
    17
 73
    13
 74
     0
 42
0.0000000001
 43
0.0000000001
 12
1.0
 22
0.0
 32
0.0
 13
1.0
 23
0.0
 33
0.0
 40
0.0
 40
0.0
 40
0.0
 40
0.0
 40
1.0
 40
1.0
 40
1.0
 40
2.0
 40
2.0
 40
2.0
 40
3.0
 40
3.0
 40
3.0
 40
4.0
 40
4.0
 40
4.0
 40
4.0
 10
17.22152709530407
 20
-5.478888616251806
 30
0.0
 10
17.16180589034928
 20
-5.478888616251806
 30
0.0
 10
17.11333210835195
 20
-5.430416529675382
 30
0.0
 10
17.11333210835195
 20
-5.370555452487656
 30
0.0
 10
17.11333210835195
 20
-5.310833399822478
 30
0.0
 10
17.16180589034928
 20
-5.262361313246054
 30
0.0
 10
17.22152709530407
 20
-5.262361313246054
 30
0.0
 10
17.2813890202023
 20
-5.262361313246054
 30
0.0
 10
17.32986110677864
 20
-5.310833399822478
 30
0.0
 10
17.32986110677864
 20
-5.370555452487656
 30
0.0
 10
17.32986110677864
 20
-5.430416529675382
 30
0.0
 10
17.2813890202023
 20
-5.478888616251806
 30
0.0
 10
17.22152709530407
 20
-5.478888616251806
 30
0.0
  0
SPLINE
  5
79
330
67
100
AcDbEntity
  8
Layer 3
 62
   240
420
 15540004
370
    35
100
AcDbSpline
210
0.0
220
0.0
230
1.0
 70
    11
 71
     3
 72
    17
 73
    13
 74
     0
 42
0.0000000001
 43
0.0000000001
 12
1.0
 22
0.0
 32
0.0
 13
1.0
 23
0.0
 33
0.0
 40
0.0
 40
0.0
 40
0.0
 40
0.0
 40
1.0
 40
1.0
 40
1.0
 40
2.0
 40
2.0
 40
2.0
 40
3.0
 40
3.0
 40
3.0
 40
4.0
 40
4.0
 40
4.0
 40
4.0
 10
17.22152709530407
 20
-0.7462497285460764
 30
0.0
 10
17.16180589034928
 20
-0.7462497285460764
 30
0.0
 10
17.11333210835195
 20
-0.6977776419696528
 30
0.0
 10
17.11333210835195
 20
-0.637916564781927
 30
0.0
 10
17.11333210835195
 20
-0.578194512116736
 30
0.0
 10
17.16180589034928
 20
-0.5297224255403125
 30
0.0
 10
17.22152709530407
 20
-0.5297224255403125
 30
0.0
 10
17.2813890202023
 20
-0.5297224255403125
 30
0.0
 10
17.32986110677864
 20
-0.578194512116736
 30
0.0
 10
17.32986110677864
 20
-0.637916564781927
 30
0.0
 10
17.32986110677864
 20
-0.6977776419696528
 30
0.0
 10
17.2813890202023
 20
-0.7462497285460764
 30
0.0
 10
17.22152709530407
 20
-0.7462497285460764
 30
0.0
  0
ENDBLK
  5
6A
330
67
100
AcDbEntity
  8
0
100
AcDbBlockEnd
  0
BLOCK
  5
7C
330
7A
100
AcDbEntity
  8
0
100
AcDbBlockBegin
  2
block 5
 70
     0
 10
0.0
 20
0.0
 30
0.0
  3
block 5
  1

  0
POLYLINE
  5
7E
330
7A
100
AcDbEntity
  8
Layer 3
 62
   240
420
 15540004
370
    35
100
AcDb2dPolyline
 66
     1
 10
0.0
 20
0.0
 30
0.0
  0
VERTEX
  5
7F
330
7E
100
AcDbEntity
  8
Layer 3
 62
   240
420
 15540004
370
    35
100
AcDbVertex
100
AcDb2dVertex
 10
17.19180636505969
 20
-5.97666676689776
 30
0.0
  0
VERTEX
  5
80
330
7E
100
AcDbEntity
  8
Layer 3
 62
   240
420
 15540004
370
    35
100
AcDbVertex
100
AcDb2dVertex
 10
12.51861148097408
 20
-5.97666676689776
 30
0.0
  0
VERTEX
  5
81
330
7E
100
AcDbEntity
  8
Layer 3
 62
   240
420
 15540004
370
    35
100
AcDbVertex
100
AcDb2dVertex
 10
11.90249972575701
 20
-6.592777674404322
 30
0.0
  0
VERTEX
  5
82
330
7E
100
AcDbEntity
  8
Layer 3
 62
   240
420
 15540004
370
    35
100
AcDbVertex
100
AcDb2dVertex
 10
11.90249972575701
 20
-11.26611073530196
 30
0.0
  0
VERTEX
  5
83
330
7E
100
AcDbEntity
  8
Layer 3
 62
   240
420
 15540004
370
    35
100
AcDbVertex
100
AcDb2dVertex
 10
12.51861148097408
 20
-11.88222164280852
 30
0.0
  0
VERTEX
  5
84
330
7E
100
AcDbEntity
  8
Layer 3
 62
   240
420
 15540004
370
    35
100
AcDbVertex
100
AcDb2dVertex
 10
17.19180636505969
 20
-11.88222164280852
 30
0.0
  0
VERTEX
  5
85
330
7E
100
AcDbEntity
  8
Layer 3
 62
   240
420
 15540004
370
    35
100
AcDbVertex
100
AcDb2dVertex
 10
17.80805460166785
 20
-11.26611073530196
 30
0.0
  0
VERTEX
  5
86
330
7E
100
AcDbEntity
  8
Layer 3
 62
   240
420
 15540004
370
    35
100
AcDbVertex
100
AcDb2dVertex
 10
17.80805460166785
 20
-6.592777674404322
 30
0.0
  0
VERTEX
  5
87
330
7E
100
AcDbEntity
  8
Layer 3
 62
   240
420
 15540004
370
    35
100
AcDbVertex
100
AcDb2dVertex
 10
17.19180636505969
 20
-5.97666676689776
 30
0.0
  0
SEQEND
  5
88
330
7E
100
AcDbEntity
  8
Layer 3
 62
   240
420
 15540004
370
    35
  0
SPLINE
  5
89
330
7A
100
AcDbEntity
  8
Layer 3
 62
   240
420
 15540004
370
    35
100
AcDbSpline
210
0.0
220
0.0
230
1.0
 70
    11
 71
     3
 72
    17
 73
    13
 74
     0
 42
0.0000000001
 43
0.0000000001
 12
1.0
 22
0.0
 32
0.0
 13
1.0
 23
0.0
 33
0.0
 40
0.0
 40
0.0
 40
0.0
 40
0.0
 40
1.0
 40
1.0
 40
1.0
 40
2.0
 40
2.0
 40
2.0
 40
3.0
 40
3.0
 40
3.0
 40
4.0
 40
4.0
 40
4.0
 40
4.0
 10
12.48888905530877
 20
-11.40402730020889
 30
0.0
 10
12.42916700264358
 20
-11.40402730020889
 30
0.0
 10
12.38069406835665
 20
-11.35555521363247
 30
0.0
 10
12.38069406835665
 20
-11.29583316096727
 30
0.0
 10
12.38069406835665
 20
-11.23597208377955
 30
0.0
 10
12.42916700264358
 20
-11.18749999720312
 30
0.0
 10
12.48888905530877
 20
-11.18749999720312
 30
0.0
 10
12.54875013249649
 20
-11.18749999720312
 30
0.0
 10
12.59722221907291
 20
-11.23597208377955
 30
0.0
 10
12.59722221907291
 20
-11.29583316096727
 30
0.0
 10
12.59722221907291
 20
-11.35555521363247
 30
0.0
 10
12.54875013249649
 20
-11.40402730020889
 30
0.0
 10
12.48888905530877
 20
-11.40402730020889
 30
0.0
  0
SPLINE
  5
8A
330
7A
100
AcDbEntity
  8
Layer 3
 62
   240
420
 15540004
370
    35
100
AcDbSpline
210
0.0
220
0.0
230
1.0
 70
    11
 71
     3
 72
    17
 73
    13
 74
     0
 42
0.0000000001
 43
0.0000000001
 12
1.0
 22
0.0
 32
0.0
 13
1.0
 23
0.0
 33
0.0
 40
0.0
 40
0.0
 40
0.0
 40
0.0
 40
1.0
 40
1.0
 40
1.0
 40
2.0
 40
2.0
 40
2.0
 40
3.0
 40
3.0
 40
3.0
 40
4.0
 40
4.0
 40
4.0
 40
4.0
 10
12.48888905530877
 20
-6.671388412503159
 30
0.0
 10
12.42916700264358
 20
-6.671388412503159
 30
0.0
 10
12.38069406835665
 20
-6.622916325926735
 30
0.0
 10
12.38069406835665
 20
-6.563194273261544
 30
0.0
 10
12.38069406835665
 20
-6.503333196073819
 30
0.0
 10
12.42916700264358
 20
-6.454861109497395
 30
0.0
 10
12.48888905530877
 20
-6.454861109497395
 30
0.0
 10
12.54875013249649
 20
-6.454861109497395
 30
0.0
 10
12.59722221907291
 20
-6.503333196073819
 30
0.0
 10
12.59722221907291
 20
-6.563194273261544
 30
0.0
 10
12.59722221907291
 20
-6.622916325926735
 30
0.0
 10
12.54875013249649
 20
-6.671388412503159
 30
0.0
 10
12.48888905530877
 20
-6.671388412503159
 30
0.0
  0
SPLINE
  5
8B
330
7A
100
AcDbEntity
  8
Layer 3
 62
   240
420
 15540004
370
    35
100
AcDbSpline
210
0.0
220
0.0
230
1.0
 70
    11
 71
     3
 72
    17
 73
    13
 74
     0
 42
0.0000000001
 43
0.0000000001
 12
1.0
 22
0.0
 32
0.0
 13
1.0
 23
0.0
 33
0.0
 40
0.0
 40
0.0
 40
0.0
 40
0.0
 40
1.0
 40
1.0
 40
1.0
 40
2.0
 40
2.0
 40
2.0
 40
3.0
 40
3.0
 40
3.0
 40
4.0
 40
4.0
 40
4.0
 40
4.0
 10
17.22152709530407
 20
-11.40402730020889
 30
0.0
 10
17.16180589034928
 20
-11.40402730020889
 30
0.0
 10
17.11333210835195
 20
-11.35555521363247
 30
0.0
 10
17.11333210835195
 20
-11.29583316096727
 30
0.0
 10
17.11333210835195
 20
-11.23597208377955
 30
0.0
 10
17.16180589034928
 20
-11.18749999720312
 30
0.0
 10
17.22152709530407
 20
-11.18749999720312
 30
0.0
 10
17.2813890202023
 20
-11.18749999720312
 30
0.0
 10
17.32986110677864
 20
-11.23597208377955
 30
0.0
 10
17.32986110677864
 20
-11.29583316096727
 30
0.0
 10
17.32986110677864
 20
-11.35555521363247
 30
0.0
 10
17.2813890202023
 20
-11.40402730020889
 30
0.0
 10
17.22152709530407
 20
-11.40402730020889
 30
0.0
  0
SPLINE
  5
8C
330
7A
100
AcDbEntity
  8
Layer 3
 62
   240
420
 15540004
370
    35
100
AcDbSpline
210
0.0
220
0.0
230
1.0
 70
    11
 71
     3
 72
    17
 73
    13
 74
     0
 42
0.0000000001
 43
0.0000000001
 12
1.0
 22
0.0
 32
0.0
 13
1.0
 23
0.0
 33
0.0
 40
0.0
 40
0.0
 40
0.0
 40
0.0
 40
1.0
 40
1.0
 40
1.0
 40
2.0
 40
2.0
 40
2.0
 40
3.0
 40
3.0
 40
3.0
 40
4.0
 40
4.0
 40
4.0
 40
4.0
 10
17.22152709530407
 20
-6.671388412503159
 30
0.0
 10
17.16180589034928
 20
-6.671388412503159
 30
0.0
 10
17.11333210835195
 20
-6.622916325926735
 30
0.0
 10
17.11333210835195
 20
-6.563194273261544
 30
0.0
 10
17.11333210835195
 20
-6.503333196073819
 30
0.0
 10
17.16180589034928
 20
-6.454861109497395
 30
0.0
 10
17.22152709530407
 20
-6.454861109497395
 30
0.0
 10
17.2813890202023
 20
-6.454861109497395
 30
0.0
 10
17.32986110677864
 20
-6.503333196073819
 30
0.0
 10
17.32986110677864
 20
-6.563194273261544
 30
0.0
 10
17.32986110677864
 20
-6.622916325926735
 30
0.0
 10
17.2813890202023
 20
-6.671388412503159
 30
0.0
 10
17.22152709530407
 20
-6.671388412503159
 30
0.0
  0
ENDBLK
  5
7D
330
7A
100
AcDbEntity
  8
0
100
AcDbBlockEnd
  0
BLOCK
  5
8F
330
8D
100
AcDbEntity
  8
0
100
AcDbBlockBegin
  2
block 6
 70
     0
 10
0.0
 20
0.0
 30
0.0
  3
block 6
  1

  0
POLYLINE
  5
91
330
8D
100
AcDbEntity
  8
Layer 3
 62
   240
420
 15540004
370
    35
100
AcDb2dPolyline
 66
     1
 10
0.0
 20
0.0
 30
0.0
  0
VERTEX
  5
92
330
91
100
AcDbEntity
  8
Layer 3
 62
   240
420
 15540004
370
    35
100
AcDbVertex
100
AcDb2dVertex
 10
5.341528149435017
 20
-5.97666676689776
 30
0.0
  0
VERTEX
  5
93
330
91
100
AcDbEntity
  8
Layer 3
 62
   240
420
 15540004
370
    35
100
AcDbVertex
100
AcDb2dVertex
 10
0.668194240826875
 20
-5.97666676689776
 30
0.0
  0
VERTEX
  5
94
330
91
100
AcDbEntity
  8
Layer 3
 62
   240
420
 15540004
370
    35
100
AcDbVertex
100
AcDb2dVertex
 10
0.0520833333203125
 20
-6.592777674404322
 30
0.0
  0
VERTEX
  5
95
330
91
100
AcDbEntity
  8
Layer 3
 62
   240
420
 15540004
370
    35
100
AcDbVertex
100
AcDb2dVertex
 10
0.0520833333203125
 20
-11.26611073530196
 30
0.0
  0
VERTEX
  5
96
330
91
100
AcDbEntity
  8
Layer 3
 62
   240
420
 15540004
370
    35
100
AcDbVertex
100
AcDb2dVertex
 10
0.668194240826875
 20
-11.88222164280852
 30
0.0
  0
VERTEX
  5
97
330
91
100
AcDbEntity
  8
Layer 3
 62
   240
420
 15540004
370
    35
100
AcDbVertex
100
AcDb2dVertex
 10
5.341528149435017
 20
-11.88222164280852
 30
0.0
  0
VERTEX
  5
98
330
91
100
AcDbEntity
  8
Layer 3
 62
   240
420
 15540004
370
    35
100
AcDbVertex
100
AcDb2dVertex
 10
5.95763905694158
 20
-11.26611073530196
 30
0.0
  0
VERTEX
  5
99
330
91
100
AcDbEntity
  8
Layer 3
 62
   240
420
 15540004
370
    35
100
AcDbVertex
100
AcDb2dVertex
 10
5.95763905694158
 20
-6.592777674404322
 30
0.0
  0
VERTEX
  5
9A
330
91
100
AcDbEntity
  8
Layer 3
 62
   240
420
 15540004
370
    35
100
AcDbVertex
100
AcDb2dVertex
 10
5.341528149435017
 20
-5.97666676689776
 30
0.0
  0
SEQEND
  5
9B
330
91
100
AcDbEntity
  8
Layer 3
 62
   240
420
 15540004
370
    35
  0
SPLINE
  5
9C
330
8D
100
AcDbEntity
  8
Layer 3
 62
   240
420
 15540004
370
    35
100
AcDbSpline
210
0.0
220
0.0
230
1.0
 70
    11
 71
     3
 72
    17
 73
    13
 74
     0
 42
0.0000000001
 43
0.0000000001
 12
1.0
 22
0.0
 32
0.0
 13
1.0
 23
0.0
 33
0.0
 40
0.0
 40
0.0
 40
0.0
 40
0.0
 40
1.0
 40
1.0
 40
1.0
 40
2.0
 40
2.0
 40
2.0
 40
3.0
 40
3.0
 40
3.0
 40
4.0
 40
4.0
 40
4.0
 40
4.0
 10
0.6384718151615626
 20
-11.40402730020889
 30
0.0
 10
0.5787497624963716
 20
-11.40402730020889
 30
0.0
 10
0.5302776759199479
 20
-11.35555521363247
 30
0.0
 10
0.5302776759199479
 20
-11.29583316096727
 30
0.0
 10
0.5302776759199479
 20
-11.23597208377955
 30
0.0
 10
0.5787497624963716
 20
-11.18749999720312
 30
0.0
 10
0.6384718151615626
 20
-11.18749999720312
 30
0.0
 10
0.6983337400597915
 20
-11.18749999720312
 30
0.0
 10
0.7468058266362152
 20
-11.23597208377955
 30
0.0
 10
0.7468058266362152
 20
-11.29583316096727
 30
0.0
 10
0.7468058266362152
 20
-11.35555521363247
 30
0.0
 10
0.6983337400597915
 20
-11.40402730020889
 30
0.0
 10
0.6384718151615626
 20
-11.40402730020889
 30
0.0
  0
SPLINE
  5
9D
330
8D
100
AcDbEntity
  8
Layer 3
 62
   240
420
 15540004
370
    35
100
AcDbSpline
210
0.0
220
0.0
230
1.0
 70
    11
 71
     3
 72
    17
 73
    13
 74
     0
 42
0.0000000001
 43
0.0000000001
 12
1.0
 22
0.0
 32
0.0
 13
1.0
 23
0.0
 33
0.0
 40
0.0
 40
0.0
 40
0.0
 40
0.0
 40
1.0
 40
1.0
 40
1.0
 40
2.0
 40
2.0
 40
2.0
 40
3.0
 40
3.0
 40
3.0
 40
4.0
 40
4.0
 40
4.0
 40
4.0
 10
0.6384718151615626
 20
-6.671388412503159
 30
0.0
 10
0.5787497624963716
 20
-6.671388412503159
 30
0.0
 10
0.5302776759199479
 20
-6.622916325926735
 30
0.0
 10
0.5302776759199479
 20
-6.563194273261544
 30
0.0
 10
0.5302776759199479
 20
-6.503333196073819
 30
0.0
 10
0.5787497624963716
 20
-6.454861109497395
 30
0.0
 10
0.6384718151615626
 20
-6.454861109497395
 30
0.0
 10
0.6983337400597915
 20
-6.454861109497395
 30
0.0
 10
0.7468058266362152
 20
-6.503333196073819
 30
0.0
 10
0.7468058266362152
 20
-6.563194273261544
 30
0.0
 10
0.7468058266362152
 20
-6.622916325926735
 30
0.0
 10
0.6983337400597915
 20
-6.671388412503159
 30
0.0
 10
0.6384718151615626
 20
-6.671388412503159
 30
0.0
  0
SPLINE
  5
9E
330
8D
100
AcDbEntity
  8
Layer 3
 62
   240
420
 15540004
370
    35
100
AcDbSpline
210
0.0
220
0.0
230
1.0
 70
    11
 71
     3
 72
    17
 73
    13
 74
     0
 42
0.0000000001
 43
0.0000000001
 12
1.0
 22
0.0
 32
0.0
 13
1.0
 23
0.0
 33
0.0
 40
0.0
 40
0.0
 40
0.0
 40
0.0
 40
1.0
 40
1.0
 40
1.0
 40
2.0
 40
2.0
 40
2.0
 40
3.0
 40
3.0
 40
3.0
 40
4.0
 40
4.0
 40
4.0
 40
4.0
 10
5.371110702867291
 20
-11.40402730020889
 30
0.0
 10
5.3113886502021
 20
-11.40402730020889
 30
0.0
 10
5.262916563625677
 20
-11.35555521363247
 30
0.0
 10
5.262916563625677
 20
-11.29583316096727
 30
0.0
 10
5.262916563625677
 20
-11.23597208377955
 30
0.0
 10
5.3113886502021
 20
-11.18749999720312
 30
0.0
 10
5.371110702867291
 20
-11.18749999720312
 30
0.0
 10
5.43097262776552
 20
-11.18749999720312
 30
0.0
 10
5.479444714341944
 20
-11.23597208377955
 30
0.0
 10
5.479444714341944
 20
-11.29583316096727
 30
0.0
 10
5.479444714341944
 20
-11.35555521363247
 30
0.0
 10
5.43097262776552
 20
-11.40402730020889
 30
0.0
 10
5.371110702867291
 20
-11.40402730020889
 30
0.0
  0
SPLINE
  5
9F
330
8D
100
AcDbEntity
  8
Layer 3
 62
   240
420
 15540004
370
    35
100
AcDbSpline
210
0.0
220
0.0
230
1.0
 70
    11
 71
     3
 72
    17
 73
    13
 74
     0
 42
0.0000000001
 43
0.0000000001
 12
1.0
 22
0.0
 32
0.0
 13
1.0
 23
0.0
 33
0.0
 40
0.0
 40
0.0
 40
0.0
 40
0.0
 40
1.0
 40
1.0
 40
1.0
 40
2.0
 40
2.0
 40
2.0
 40
3.0
 40
3.0
 40
3.0
 40
4.0
 40
4.0
 40
4.0
 40
4.0
 10
5.371110702867291
 20
-6.671388412503159
 30
0.0
 10
5.3113886502021
 20
-6.671388412503159
 30
0.0
 10
5.262916563625677
 20
-6.622916325926735
 30
0.0
 10
5.262916563625677
 20
-6.563194273261544
 30
0.0
 10
5.262916563625677
 20
-6.503333196073819
 30
0.0
 10
5.3113886502021
 20
-6.454861109497395
 30
0.0
 10
5.371110702867291
 20
-6.454861109497395
 30
0.0
 10
5.43097262776552
 20
-6.454861109497395
 30
0.0
 10
5.479444714341944
 20
-6.503333196073819
 30
0.0
 10
5.479444714341944
 20
-6.563194273261544
 30
0.0
 10
5.479444714341944
 20
-6.622916325926735
 30
0.0
 10
5.43097262776552
 20
-6.671388412503159
 30
0.0
 10
5.371110702867291
 20
-6.671388412503159
 30
0.0
  0
ENDBLK
  5
90
330
8D
100
AcDbEntity
  8
0
100
AcDbBlockEnd
  0
BLOCK
  5
A2
330
A0
100
AcDbEntity
  8
0
100
AcDbBlockBegin
  2
block 7
 70
     0
 10
0.0
 20
0.0
 30
0.0
  3
block 7
  1

  0
POLYLINE
  5
A4
330
A0
100
AcDbEntity
  8
Layer 3
 62
   240
420
 15540004
370
    35
100
AcDb2dPolyline
 66
     1
 10
0.0
 20
0.0
 30
0.0
  0
VERTEX
  5
A5
330
A4
100
AcDbEntity
  8
Layer 3
 62
   240
420
 15540004
370
    35
100
AcDbVertex
100
AcDb2dVertex
 10
11.2666668333921
 20
-5.97666676689776
 30
0.0
  0
VERTEX
  5
A6
330
A4
100
AcDbEntity
  8
Layer 3
 62
   240
420
 15540004
370
    35
100
AcDbVertex
100
AcDb2dVertex
 10
6.593471949306493
 20
-5.97666676689776
 30
0.0
  0
VERTEX
  5
A7
330
A4
100
AcDbEntity
  8
Layer 3
 62
   240
420
 15540004
370
    35
100
AcDbVertex
100
AcDb2dVertex
 10
5.977222017277408
 20
-6.592777674404322
 30
0.0
  0
VERTEX
  5
A8
330
A4
100
AcDbEntity
  8
Layer 3
 62
   240
420
 15540004
370
    35
100
AcDbVertex
100
AcDb2dVertex
 10
5.977222017277408
 20
-11.26611073530196
 30
0.0
  0
VERTEX
  5
A9
330
A4
100
AcDbEntity
  8
Layer 3
 62
   240
420
 15540004
370
    35
100
AcDbVertex
100
AcDb2dVertex
 10
6.593471949306493
 20
-11.88222164280852
 30
0.0
  0
VERTEX
  5
AA
330
A4
100
AcDbEntity
  8
Layer 3
 62
   240
420
 15540004
370
    35
100
AcDbVertex
100
AcDb2dVertex
 10
11.2666668333921
 20
-11.88222164280852
 30
0.0
  0
VERTEX
  5
AB
330
A4
100
AcDbEntity
  8
Layer 3
 62
   240
420
 15540004
370
    35
100
AcDbVertex
100
AcDb2dVertex
 10
11.88277774089866
 20
-11.26611073530196
 30
0.0
  0
VERTEX
  5
AC
330
A4
100
AcDbEntity
  8
Layer 3
 62
   240
420
 15540004
370
    35
100
AcDbVertex
100
AcDb2dVertex
 10
11.88277774089866
 20
-6.592777674404322
 30
0.0
  0
VERTEX
  5
AD
330
A4
100
AcDbEntity
  8
Layer 3
 62
   240
420
 15540004
370
    35
100
AcDbVertex
100
AcDb2dVertex
 10
11.2666668333921
 20
-5.97666676689776
 30
0.0
  0
SEQEND
  5
AE
330
A4
100
AcDbEntity
  8
Layer 3
 62
   240
420
 15540004
370
    35
  0
SPLINE
  5
AF
330
A0
100
AcDbEntity
  8
Layer 3
 62
   240
420
 15540004
370
    35
100
AcDbSpline
210
0.0
220
0.0
230
1.0
 70
    11
 71
     3
 72
    17
 73
    13
 74
     0
 42
0.0000000001
 43
0.0000000001
 12
1.0
 22
0.0
 32
0.0
 13
1.0
 23
0.0
 33
0.0
 40
0.0
 40
0.0
 40
0.0
 40
0.0
 40
1.0
 40
1.0
 40
1.0
 40
2.0
 40
2.0
 40
2.0
 40
3.0
 40
3.0
 40
3.0
 40
4.0
 40
4.0
 40
4.0
 40
4.0
 10
6.563750371351683
 20
-11.40402730020889
 30
0.0
 10
6.503889294163958
 20
-11.40402730020889
 30
0.0
 10
6.455416359877031
 20
-11.35555521363247
 30
0.0
 10
6.455416359877031
 20
-11.29583316096727
 30
0.0
 10
6.455416359877031
 20
-11.23597208377955
 30
0.0
 10
6.503889294163958
 20
-11.18749999720312
 30
0.0
 10
6.563750371351683
 20
-11.18749999720312
 30
0.0
 10
6.623472424016887
 20
-11.18749999720312
 30
0.0
 10
6.671944510593311
 20
-11.23597208377955
 30
0.0
 10
6.671944510593311
 20
-11.29583316096727
 30
0.0
 10
6.671944510593311
 20
-11.35555521363247
 30
0.0
 10
6.623472424016887
 20
-11.40402730020889
 30
0.0
 10
6.563750371351683
 20
-11.40402730020889
 30
0.0
  0
SPLINE
  5
B0
330
A0
100
AcDbEntity
  8
Layer 3
 62
   240
420
 15540004
370
    35
100
AcDbSpline
210
0.0
220
0.0
230
1.0
 70
    11
 71
     3
 72
    17
 73
    13
 74
     0
 42
0.0000000001
 43
0.0000000001
 12
1.0
 22
0.0
 32
0.0
 13
1.0
 23
0.0
 33
0.0
 40
0.0
 40
0.0
 40
0.0
 40
0.0
 40
1.0
 40
1.0
 40
1.0
 40
2.0
 40
2.0
 40
2.0
 40
3.0
 40
3.0
 40
3.0
 40
4.0
 40
4.0
 40
4.0
 40
4.0
 10
6.563750371351683
 20
-6.671388412503159
 30
0.0
 10
6.503889294163958
 20
-6.671388412503159
 30
0.0
 10
6.455416359877031
 20
-6.622916325926735
 30
0.0
 10
6.455416359877031
 20
-6.563194273261544
 30
0.0
 10
6.455416359877031
 20
-6.503333196073819
 30
0.0
 10
6.503889294163958
 20
-6.454861109497395
 30
0.0
 10
6.563750371351683
 20
-6.454861109497395
 30
0.0
 10
6.623472424016887
 20
-6.454861109497395
 30
0.0
 10
6.671944510593311
 20
-6.503333196073819
 30
0.0
 10
6.671944510593311
 20
-6.563194273261544
 30
0.0
 10
6.671944510593311
 20
-6.622916325926735
 30
0.0
 10
6.623472424016887
 20
-6.671388412503159
 30
0.0
 10
6.563750371351683
 20
-6.671388412503159
 30
0.0
  0
SPLINE
  5
B1
330
A0
100
AcDbEntity
  8
Layer 3
 62
   240
420
 15540004
370
    35
100
AcDbSpline
210
0.0
220
0.0
230
1.0
 70
    11
 71
     3
 72
    17
 73
    13
 74
     0
 42
0.0000000001
 43
0.0000000001
 12
1.0
 22
0.0
 32
0.0
 13
1.0
 23
0.0
 33
0.0
 40
0.0
 40
0.0
 40
0.0
 40
0.0
 40
1.0
 40
1.0
 40
1.0
 40
2.0
 40
2.0
 40
2.0
 40
3.0
 40
3.0
 40
3.0
 40
4.0
 40
4.0
 40
4.0
 40
4.0
 10
11.29638925905741
 20
-11.40402730020889
 30
0.0
 10
11.23652818186969
 20
-11.40402730020889
 30
0.0
 10
11.18805524758276
 20
-11.35555521363247
 30
0.0
 10
11.18805524758276
 20
-11.29583316096727
 30
0.0
 10
11.18805524758276
 20
-11.23597208377955
 30
0.0
 10
11.23652818186969
 20
-11.18749999720312
 30
0.0
 10
11.29638925905741
 20
-11.18749999720312
 30
0.0
 10
11.3561113117226
 20
-11.18749999720312
 30
0.0
 10
11.40458339829903
 20
-11.23597208377955
 30
0.0
 10
11.40458339829903
 20
-11.29583316096727
 30
0.0
 10
11.40458339829903
 20
-11.35555521363247
 30
0.0
 10
11.3561113117226
 20
-11.40402730020889
 30
0.0
 10
11.29638925905741
 20
-11.40402730020889
 30
0.0
  0
SPLINE
  5
B2
330
A0
100
AcDbEntity
  8
Layer 3
 62
   240
420
 15540004
370
    35
100
AcDbSpline
210
0.0
220
0.0
230
1.0
 70
    11
 71
     3
 72
    17
 73
    13
 74
     0
 42
0.0000000001
 43
0.0000000001
 12
1.0
 22
0.0
 32
0.0
 13
1.0
 23
0.0
 33
0.0
 40
0.0
 40
0.0
 40
0.0
 40
0.0
 40
1.0
 40
1.0
 40
1.0
 40
2.0
 40
2.0
 40
2.0
 40
3.0
 40
3.0
 40
3.0
 40
4.0
 40
4.0
 40
4.0
 40
4.0
 10
11.29638925905741
 20
-6.671388412503159
 30
0.0
 10
11.23652818186969
 20
-6.671388412503159
 30
0.0
 10
11.18805524758276
 20
-6.622916325926735
 30
0.0
 10
11.18805524758276
 20
-6.563194273261544
 30
0.0
 10
11.18805524758276
 20
-6.503333196073819
 30
0.0
 10
11.23652818186969
 20
-6.454861109497395
 30
0.0
 10
11.29638925905741
 20
-6.454861109497395
 30
0.0
 10
11.3561113117226
 20
-6.454861109497395
 30
0.0
 10
11.40458339829903
 20
-6.503333196073819
 30
0.0
 10
11.40458339829903
 20
-6.563194273261544
 30
0.0
 10
11.40458339829903
 20
-6.622916325926735
 30
0.0
 10
11.3561113117226
 20
-6.671388412503159
 30
0.0
 10
11.29638925905741
 20
-6.671388412503159
 30
0.0
  0
ENDBLK
  5
A3
330
A0
100
AcDbEntity
  8
0
100
AcDbBlockEnd
  0
BLOCK
  5
B5
330
B3
100
AcDbEntity
  8
0
100
AcDbBlockBegin
  2
block 8
 70
     0
 10
0.0
 20
0.0
 30
0.0
  3
block 8
  1

  0
POLYLINE
  5
B7
330
B3
100
AcDbEntity
  8
Layer 3
 62
   240
420
 15540004
370
    35
100
AcDb2dPolyline
 66
     1
 10
0.0
 20
0.0
 30
0.0
  0
VERTEX
  5
B8
330
B7
100
AcDbEntity
  8
Layer 3
 62
   240
420
 15540004
370
    35
100
AcDbVertex
100
AcDb2dVertex
 10
23.11708237811837
 20
-0.0515272352301737
 30
0.0
  0
VERTEX
  5
B9
330
B7
100
AcDbEntity
  8
Layer 3
 62
   240
420
 15540004
370
    35
100
AcDbVertex
100
AcDb2dVertex
 10
18.44374931722074
 20
-0.0515272352301737
 30
0.0
  0
VERTEX
  5
BA
330
B7
100
AcDbEntity
  8
Layer 3
 62
   240
420
 15540004
370
    35
100
AcDbVertex
100
AcDb2dVertex
 10
17.82764010513518
 20
-0.6676389904472395
 30
0.0
  0
VERTEX
  5
BB
330
B7
100
AcDbEntity
  8
Layer 3
 62
   240
420
 15540004
370
    35
100
AcDbVertex
100
AcDb2dVertex
 10
17.82764010513518
 20
-5.340833026822343
 30
0.0
  0
VERTEX
  5
BC
330
B7
100
AcDbEntity
  8
Layer 3
 62
   240
420
 15540004
370
    35
100
AcDbVertex
100
AcDb2dVertex
 10
18.44374931722074
 20
-5.957082958851441
 30
0.0
  0
VERTEX
  5
BD
330
B7
100
AcDbEntity
  8
Layer 3
 62
   240
420
 15540004
370
    35
100
AcDbVertex
100
AcDb2dVertex
 10
23.11708237811837
 20
-5.957082958851441
 30
0.0
  0
VERTEX
  5
BE
330
B7
100
AcDbEntity
  8
Layer 3
 62
   240
420
 15540004
370
    35
100
AcDbVertex
100
AcDb2dVertex
 10
23.73319498104587
 20
-5.340833026822343
 30
0.0
  0
VERTEX
  5
BF
330
B7
100
AcDbEntity
  8
Layer 3
 62
   240
420
 15540004
370
    35
100
AcDbVertex
100
AcDb2dVertex
 10
23.73319498104587
 20
-0.6676389904472395
 30
0.0
  0
VERTEX
  5
C0
330
B7
100
AcDbEntity
  8
Layer 3
 62
   240
420
 15540004
370
    35
100
AcDbVertex
100
AcDb2dVertex
 10
23.11708237811837
 20
-0.0515272352301737
 30
0.0
  0
SEQEND
  5
C1
330
B7
100
AcDbEntity
  8
Layer 3
 62
   240
420
 15540004
370
    35
  0
SPLINE
  5
C2
330
B3
100
AcDbEntity
  8
Layer 3
 62
   240
420
 15540004
370
    35
100
AcDbSpline
210
0.0
220
0.0
230
1.0
 70
    11
 71
     3
 72
    17
 73
    13
 74
     0
 42
0.0000000001
 43
0.0000000001
 12
1.0
 22
0.0
 32
0.0
 13
1.0
 23
0.0
 33
0.0
 40
0.0
 40
0.0
 40
0.0
 40
0.0
 40
1.0
 40
1.0
 40
1.0
 40
2.0
 40
2.0
 40
2.0
 40
3.0
 40
3.0
 40
3.0
 40
4.0
 40
4.0
 40
4.0
 40
4.0
 10
18.41416761149896
 20
-5.478888616251806
 30
0.0
 10
18.35430568660074
 20
-5.478888616251806
 30
0.0
 10
18.30583360002424
 20
-5.430416529675382
 30
0.0
 10
18.30583360002424
 20
-5.370555452487656
 30
0.0
 10
18.30583360002424
 20
-5.310833399822478
 30
0.0
 10
18.35430568660074
 20
-5.262361313246054
 30
0.0
 10
18.41416761149896
 20
-5.262361313246054
 30
0.0
 10
18.4738888164536
 20
-5.262361313246054
 30
0.0
 10
18.52236090302997
 20
-5.310833399822478
 30
0.0
 10
18.52236090302997
 20
-5.370555452487656
 30
0.0
 10
18.52236090302997
 20
-5.430416529675382
 30
0.0
 10
18.4738888164536
 20
-5.478888616251806
 30
0.0
 10
18.41416761149896
 20
-5.478888616251806
 30
0.0
  0
SPLINE
  5
C3
330
B3
100
AcDbEntity
  8
Layer 3
 62
   240
420
 15540004
370
    35
100
AcDbSpline
210
0.0
220
0.0
230
1.0
 70
    11
 71
     3
 72
    17
 73
    13
 74
     0
 42
0.0000000001
 43
0.0000000001
 12
1.0
 22
0.0
 32
0.0
 13
1.0
 23
0.0
 33
0.0
 40
0.0
 40
0.0
 40
0.0
 40
0.0
 40
1.0
 40
1.0
 40
1.0
 40
2.0
 40
2.0
 40
2.0
 40
3.0
 40
3.0
 40
3.0
 40
4.0
 40
4.0
 40
4.0
 40
4.0
 10
18.41416761149896
 20
-0.7462497285460764
 30
0.0
 10
18.35430568660074
 20
-0.7462497285460764
 30
0.0
 10
18.30583360002424
 20
-0.6977776419696528
 30
0.0
 10
18.30583360002424
 20
-0.637916564781927
 30
0.0
 10
18.30583360002424
 20
-0.578194512116736
 30
0.0
 10
18.35430568660074
 20
-0.5297224255403125
 30
0.0
 10
18.41416761149896
 20
-0.5297224255403125
 30
0.0
 10
18.4738888164536
 20
-0.5297224255403125
 30
0.0
 10
18.52236090302997
 20
-0.578194512116736
 30
0.0
 10
18.52236090302997
 20
-0.637916564781927
 30
0.0
 10
18.52236090302997
 20
-0.6977776419696528
 30
0.0
 10
18.4738888164536
 20
-0.7462497285460764
 30
0.0
 10
18.41416761149896
 20
-0.7462497285460764
 30
0.0
  0
SPLINE
  5
C4
330
B3
100
AcDbEntity
  8
Layer 3
 62
   240
420
 15540004
370
    35
100
AcDbSpline
210
0.0
220
0.0
230
1.0
 70
    11
 71
     3
 72
    17
 73
    13
 74
     0
 42
0.0000000001
 43
0.0000000001
 12
1.0
 22
0.0
 32
0.0
 13
1.0
 23
0.0
 33
0.0
 40
0.0
 40
0.0
 40
0.0
 40
0.0
 40
1.0
 40
1.0
 40
1.0
 40
2.0
 40
2.0
 40
2.0
 40
3.0
 40
3.0
 40
3.0
 40
4.0
 40
4.0
 40
4.0
 40
4.0
 10
23.14680649920469
 20
-5.478888616251806
 30
0.0
 10
23.08694457430646
 20
-5.478888616251806
 30
0.0
 10
23.03847248772996
 20
-5.430416529675382
 30
0.0
 10
23.03847248772996
 20
-5.370555452487656
 30
0.0
 10
23.03847248772996
 20
-5.310833399822478
 30
0.0
 10
23.08694457430646
 20
-5.262361313246054
 30
0.0
 10
23.14680649920469
 20
-5.262361313246054
 30
0.0
 10
23.20652770415933
 20
-5.262361313246054
 30
0.0
 10
23.2549997907357
 20
-5.310833399822478
 30
0.0
 10
23.2549997907357
 20
-5.370555452487656
 30
0.0
 10
23.2549997907357
 20
-5.430416529675382
 30
0.0
 10
23.20652770415933
 20
-5.478888616251806
 30
0.0
 10
23.14680649920469
 20
-5.478888616251806
 30
0.0
  0
SPLINE
  5
C5
330
B3
100
AcDbEntity
  8
Layer 3
 62
   240
420
 15540004
370
    35
100
AcDbSpline
210
0.0
220
0.0
230
1.0
 70
    11
 71
     3
 72
    17
 73
    13
 74
     0
 42
0.0000000001
 43
0.0000000001
 12
1.0
 22
0.0
 32
0.0
 13
1.0
 23
0.0
 33
0.0
 40
0.0
 40
0.0
 40
0.0
 40
0.0
 40
1.0
 40
1.0
 40
1.0
 40
2.0
 40
2.0
 40
2.0
 40
3.0
 40
3.0
 40
3.0
 40
4.0
 40
4.0
 40
4.0
 40
4.0
 10
23.14680649920469
 20
-0.7462497285460764
 30
0.0
 10
23.08694457430646
 20
-0.7462497285460764
 30
0.0
 10
23.03847248772996
 20
-0.6977776419696528
 30
0.0
 10
23.03847248772996
 20
-0.637916564781927
 30
0.0
 10
23.03847248772996
 20
-0.578194512116736
 30
0.0
 10
23.08694457430646
 20
-0.5297224255403125
 30
0.0
 10
23.14680649920469
 20
-0.5297224255403125
 30
0.0
 10
23.20652770415933
 20
-0.5297224255403125
 30
0.0
 10
23.2549997907357
 20
-0.578194512116736
 30
0.0
 10
23.2549997907357
 20
-0.637916564781927
 30
0.0
 10
23.2549997907357
 20
-0.6977776419696528
 30
0.0
 10
23.20652770415933
 20
-0.7462497285460764
 30
0.0
 10
23.14680649920469
 20
-0.7462497285460764
 30
0.0
  0
ENDBLK
  5
B6
330
B3
100
AcDbEntity
  8
0
100
AcDbBlockEnd
  0
BLOCK
  5
C8
330
C6
100
AcDbEntity
  8
0
100
AcDbBlockBegin
  2
block 9
 70
     0
 10
0.0
 20
0.0
 30
0.0
  3
block 9
  1

  0
POLYLINE
  5
CA
330
C6
100
AcDbEntity
  8
Layer 3
 62
   240
420
 15540004
370
    35
100
AcDb2dPolyline
 66
     1
 10
0.0
 20
0.0
 30
0.0
  0
VERTEX
  5
CB
330
CA
100
AcDbEntity
  8
Layer 3
 62
   240
420
 15540004
370
    35
100
AcDbVertex
100
AcDb2dVertex
 10
23.11708237811837
 20
-5.97666676689776
 30
0.0
  0
VERTEX
  5
CC
330
CA
100
AcDbEntity
  8
Layer 3
 62
   240
420
 15540004
370
    35
100
AcDbVertex
100
AcDb2dVertex
 10
18.44374931722074
 20
-5.97666676689776
 30
0.0
  0
VERTEX
  5
CD
330
CA
100
AcDbEntity
  8
Layer 3
 62
   240
420
 15540004
370
    35
100
AcDbVertex
100
AcDb2dVertex
 10
17.82764010513518
 20
-6.592777674404322
 30
0.0
  0
VERTEX
  5
CE
330
CA
100
AcDbEntity
  8
Layer 3
 62
   240
420
 15540004
370
    35
100
AcDbVertex
100
AcDb2dVertex
 10
17.82764010513518
 20
-11.26611073530196
 30
0.0
  0
VERTEX
  5
CF
330
CA
100
AcDbEntity
  8
Layer 3
 62
   240
420
 15540004
370
    35
100
AcDbVertex
100
AcDb2dVertex
 10
18.44374931722074
 20
-11.88222164280852
 30
0.0
  0
VERTEX
  5
D0
330
CA
100
AcDbEntity
  8
Layer 3
 62
   240
420
 15540004
370
    35
100
AcDbVertex
100
AcDb2dVertex
 10
23.11708237811837
 20
-11.88222164280852
 30
0.0
  0
VERTEX
  5
D1
330
CA
100
AcDbEntity
  8
Layer 3
 62
   240
420
 15540004
370
    35
100
AcDbVertex
100
AcDb2dVertex
 10
23.73319498104587
 20
-11.26611073530196
 30
0.0
  0
VERTEX
  5
D2
330
CA
100
AcDbEntity
  8
Layer 3
 62
   240
420
 15540004
370
    35
100
AcDbVertex
100
AcDb2dVertex
 10
23.73319498104587
 20
-6.592777674404322
 30
0.0
  0
VERTEX
  5
D3
330
CA
100
AcDbEntity
  8
Layer 3
 62
   240
420
 15540004
370
    35
100
AcDbVertex
100
AcDb2dVertex
 10
23.11708237811837
 20
-5.97666676689776
 30
0.0
  0
SEQEND
  5
D4
330
CA
100
AcDbEntity
  8
Layer 3
 62
   240
420
 15540004
370
    35
  0
SPLINE
  5
D5
330
C6
100
AcDbEntity
  8
Layer 3
 62
   240
420
 15540004
370
    35
100
AcDbSpline
210
0.0
220
0.0
230
1.0
 70
    11
 71
     3
 72
    17
 73
    13
 74
     0
 42
0.0000000001
 43
0.0000000001
 12
1.0
 22
0.0
 32
0.0
 13
1.0
 23
0.0
 33
0.0
 40
0.0
 40
0.0
 40
0.0
 40
0.0
 40
1.0
 40
1.0
 40
1.0
 40
2.0
 40
2.0
 40
2.0
 40
3.0
 40
3.0
 40
3.0
 40
4.0
 40
4.0
 40
4.0
 40
4.0
 10
18.41416761149896
 20
-11.40402730020889
 30
0.0
 10
18.35430568660074
 20
-11.40402730020889
 30
0.0
 10
18.30583360002424
 20
-11.35555521363247
 30
0.0
 10
18.30583360002424
 20
-11.29583316096727
 30
0.0
 10
18.30583360002424
 20
-11.23597208377955
 30
0.0
 10
18.35430568660074
 20
-11.18749999720312
 30
0.0
 10
18.41416761149896
 20
-11.18749999720312
 30
0.0
 10
18.4738888164536
 20
-11.18749999720312
 30
0.0
 10
18.52236090302997
 20
-11.23597208377955
 30
0.0
 10
18.52236090302997
 20
-11.29583316096727
 30
0.0
 10
18.52236090302997
 20
-11.35555521363247
 30
0.0
 10
18.4738888164536
 20
-11.40402730020889
 30
0.0
 10
18.41416761149896
 20
-11.40402730020889
 30
0.0
  0
SPLINE
  5
D6
330
C6
100
AcDbEntity
  8
Layer 3
 62
   240
420
 15540004
370
    35
100
AcDbSpline
210
0.0
220
0.0
230
1.0
 70
    11
 71
     3
 72
    17
 73
    13
 74
     0
 42
0.0000000001
 43
0.0000000001
 12
1.0
 22
0.0
 32
0.0
 13
1.0
 23
0.0
 33
0.0
 40
0.0
 40
0.0
 40
0.0
 40
0.0
 40
1.0
 40
1.0
 40
1.0
 40
2.0
 40
2.0
 40
2.0
 40
3.0
 40
3.0
 40
3.0
 40
4.0
 40
4.0
 40
4.0
 40
4.0
 10
18.41416761149896
 20
-6.671388412503159
 30
0.0
 10
18.35430568660074
 20
-6.671388412503159
 30
0.0
 10
18.30583360002424
 20
-6.622916325926735
 30
0.0
 10
18.30583360002424
 20
-6.563194273261544
 30
0.0
 10
18.30583360002424
 20
-6.503333196073819
 30
0.0
 10
18.35430568660074
 20
-6.454861109497395
 30
0.0
 10
18.41416761149896
 20
-6.454861109497395
 30
0.0
 10
18.4738888164536
 20
-6.454861109497395
 30
0.0
 10
18.52236090302997
 20
-6.503333196073819
 30
0.0
 10
18.52236090302997
 20
-6.563194273261544
 30
0.0
 10
18.52236090302997
 20
-6.622916325926735
 30
0.0
 10
18.4738888164536
 20
-6.671388412503159
 30
0.0
 10
18.41416761149896
 20
-6.671388412503159
 30
0.0
  0
SPLINE
  5
D7
330
C6
100
AcDbEntity
  8
Layer 3
 62
   240
420
 15540004
370
    35
100
AcDbSpline
210
0.0
220
0.0
230
1.0
 70
    11
 71
     3
 72
    17
 73
    13
 74
     0
 42
0.0000000001
 43
0.0000000001
 12
1.0
 22
0.0
 32
0.0
 13
1.0
 23
0.0
 33
0.0
 40
0.0
 40
0.0
 40
0.0
 40
0.0
 40
1.0
 40
1.0
 40
1.0
 40
2.0
 40
2.0
 40
2.0
 40
3.0
 40
3.0
 40
3.0
 40
4.0
 40
4.0
 40
4.0
 40
4.0
 10
20.55777655193528
 20
-10.37263827594417
 30
0.0
 10
20.52944437149527
 20
-10.37263827594417
 30
0.0
 10
20.50652736575018
 20
-10.34972211790953
 30
0.0
 10
20.50652736575018
 20
-10.32138908975906
 30
0.0
 10
20.50652736575018
 20
-10.29319423842062
 30
0.0
 10
20.52944437149527
 20
-10.27027723267549
 30
0.0
 10
20.55777655193528
 20
-10.27027723267549
 30
0.0
 10
20.58597140327364
 20
-10.27027723267549
 30
0.0
 10
20.60889010443987
 20
-10.29319423842062
 30
0.0
 10
20.60889010443987
 20
-10.32138908975906
 30
0.0
 10
20.60889010443987
 20
-10.34972211790953
 30
0.0
 10
20.58597140327364
 20
-10.37263827594417
 30
0.0
 10
20.55777655193528
 20
-10.37263827594417
 30
0.0
  0
SPLINE
  5
D8
330
C6
100
AcDbEntity
  8
Layer 3
 62
   240
420
 15540004
370
    35
100
AcDbSpline
210
0.0
220
0.0
230
1.0
 70
    11
 71
     3
 72
    17
 73
    13
 74
     0
 42
0.0000000001
 43
0.0000000001
 12
1.0
 22
0.0
 32
0.0
 13
1.0
 23
0.0
 33
0.0
 40
0.0
 40
0.0
 40
0.0
 40
0.0
 40
1.0
 40
1.0
 40
1.0
 40
2.0
 40
2.0
 40
2.0
 40
3.0
 40
3.0
 40
3.0
 40
4.0
 40
4.0
 40
4.0
 40
4.0
 10
21.92180548225829
 20
-11.73666635855672
 30
0.0
 10
21.89361232634091
 20
-11.73666635855672
 30
0.0
 10
21.87069362517468
 20
-11.71375020052208
 30
0.0
 10
21.87069362517468
 20
-11.68555534918364
 30
0.0
 10
21.87069362517468
 20
-11.65722232103318
 30
0.0
 10
21.89361232634091
 20
-11.63430531528804
 30
0.0
 10
21.92180548225829
 20
-11.63430531528804
 30
0.0
 10
21.9501376626983
 20
-11.63430531528804
 30
0.0
 10
21.97305636386437
 20
-11.65722232103318
 30
0.0
 10
21.97305636386437
 20
-11.68555534918364
 30
0.0
 10
21.97305636386437
 20
-11.71375020052208
 30
0.0
 10
21.9501376626983
 20
-11.73666635855672
 30
0.0
 10
21.92180548225829
 20
-11.73666635855672
 30
0.0
  0
SPLINE
  5
D9
330
C6
100
AcDbEntity
  8
Layer 3
 62
   240
420
 15540004
370
    35
100
AcDbSpline
210
0.0
220
0.0
230
1.0
 70
    11
 71
     3
 72
    17
 73
    13
 74
     0
 42
0.0000000001
 43
0.0000000001
 12
1.0
 22
0.0
 32
0.0
 13
1.0
 23
0.0
 33
0.0
 40
0.0
 40
0.0
 40
0.0
 40
0.0
 40
1.0
 40
1.0
 40
1.0
 40
2.0
 40
2.0
 40
2.0
 40
3.0
 40
3.0
 40
3.0
 40
4.0
 40
4.0
 40
4.0
 40
4.0
 10
22.17235988486497
 20
-8.757916766202447
 30
0.0
 10
22.14416672894744
 20
-8.757916766202447
 30
0.0
 10
22.12124972320233
 20
-8.734999760457308
 30
0.0
 10
22.12124972320233
 20
-8.706805756829374
 30
0.0
 10
22.12124972320233
 20
-8.678471880968402
 30
0.0
 10
22.14416672894744
 20
-8.655555722933766
 30
0.0
 10
22.17235988486497
 20
-8.655555722933766
 30
0.0
 10
22.20069376072594
 20
-8.655555722933766
 30
0.0
 10
22.22361076647103
 20
-8.678471880968402
 30
0.0
 10
22.22361076647103
 20
-8.706805756829374
 30
0.0
 10
22.22361076647103
 20
-8.734999760457308
 30
0.0
 10
22.20069376072594
 20
-8.757916766202447
 30
0.0
 10
22.17235988486497
 20
-8.757916766202447
 30
0.0
  0
SPLINE
  5
DA
330
C6
100
AcDbEntity
  8
Layer 3
 62
   240
420
 15540004
370
    35
100
AcDbSpline
210
0.0
220
0.0
230
1.0
 70
    11
 71
     3
 72
    17
 73
    13
 74
     0
 42
0.0000000001
 43
0.0000000001
 12
1.0
 22
0.0
 32
0.0
 13
1.0
 23
0.0
 33
0.0
 40
0.0
 40
0.0
 40
0.0
 40
0.0
 40
1.0
 40
1.0
 40
1.0
 40
2.0
 40
2.0
 40
2.0
 40
3.0
 40
3.0
 40
3.0
 40
4.0
 40
4.0
 40
4.0
 40
4.0
 10
23.14680649920469
 20
-11.40402730020889
 30
0.0
 10
23.08694457430646
 20
-11.40402730020889
 30
0.0
 10
23.03847248772996
 20
-11.35555521363247
 30
0.0
 10
23.03847248772996
 20
-11.29583316096727
 30
0.0
 10
23.03847248772996
 20
-11.23597208377955
 30
0.0
 10
23.08694457430646
 20
-11.18749999720312
 30
0.0
 10
23.14680649920469
 20
-11.18749999720312
 30
0.0
 10
23.20652770415933
 20
-11.18749999720312
 30
0.0
 10
23.2549997907357
 20
-11.23597208377955
 30
0.0
 10
23.2549997907357
 20
-11.29583316096727
 30
0.0
 10
23.2549997907357
 20
-11.35555521363247
 30
0.0
 10
23.20652770415933
 20
-11.40402730020889
 30
0.0
 10
23.14680649920469
 20
-11.40402730020889
 30
0.0
  0
SPLINE
  5
DB
330
C6
100
AcDbEntity
  8
Layer 3
 62
   240
420
 15540004
370
    35
100
AcDbSpline
210
0.0
220
0.0
230
1.0
 70
    11
 71
     3
 72
    17
 73
    13
 74
     0
 42
0.0000000001
 43
0.0000000001
 12
1.0
 22
0.0
 32
0.0
 13
1.0
 23
0.0
 33
0.0
 40
0.0
 40
0.0
 40
0.0
 40
0.0
 40
1.0
 40
1.0
 40
1.0
 40
2.0
 40
2.0
 40
2.0
 40
3.0
 40
3.0
 40
3.0
 40
4.0
 40
4.0
 40
4.0
 40
4.0
 10
23.14680649920469
 20
-6.671388412503159
 30
0.0
 10
23.08694457430646
 20
-6.671388412503159
 30
0.0
 10
23.03847248772996
 20
-6.622916325926735
 30
0.0
 10
23.03847248772996
 20
-6.563194273261544
 30
0.0
 10
23.03847248772996
 20
-6.503333196073819
 30
0.0
 10
23.08694457430646
 20
-6.454861109497395
 30
0.0
 10
23.14680649920469
 20
-6.454861109497395
 30
0.0
 10
23.20652770415933
 20
-6.454861109497395
 30
0.0
 10
23.2549997907357
 20
-6.503333196073819
 30
0.0
 10
23.2549997907357
 20
-6.563194273261544
 30
0.0
 10
23.2549997907357
 20
-6.622916325926735
 30
0.0
 10
23.20652770415933
 20
-6.671388412503159
 30
0.0
 10
23.14680649920469
 20
-6.671388412503159
 30
0.0
  0
SPLINE
  5
DC
330
C6
100
AcDbEntity
  8
Layer 3
 62
   240
420
 15540004
370
    35
100
AcDbSpline
210
0.0
220
0.0
230
1.0
 70
    11
 71
     3
 72
    17
 73
    13
 74
     0
 42
0.0000000001
 43
0.0000000001
 12
1.0
 22
0.0
 32
0.0
 13
1.0
 23
0.0
 33
0.0
 40
0.0
 40
0.0
 40
0.0
 40
0.0
 40
1.0
 40
1.0
 40
1.0
 40
2.0
 40
2.0
 40
2.0
 40
3.0
 40
3.0
 40
3.0
 40
4.0
 40
4.0
 40
4.0
 40
4.0
 10
23.53652783971046
 20
-10.12208302562703
 30
0.0
 10
23.50819565927059
 20
-10.12208302562703
 30
0.0
 10
23.48527695810437
 20
-10.09916686759239
 30
0.0
 10
23.48527695810437
 20
-10.07083299173142
 30
0.0
 10
23.48527695810437
 20
-10.04263898810349
 30
0.0
 10
23.50819565927059
 20
-10.01972198235835
 30
0.0
 10
23.53652783971046
 20
-10.01972198235835
 30
0.0
 10
23.56472099562799
 20
-10.01972198235835
 30
0.0
 10
23.58763969679406
 20
-10.04263898810349
 30
0.0
 10
23.58763969679406
 20
-10.07083299173142
 30
0.0
 10
23.58763969679406
 20
-10.09916686759239
 30
0.0
 10
23.56472099562799
 20
-10.12208302562703
 30
0.0
 10
23.53652783971046
 20
-10.12208302562703
 30
0.0
  0
ENDBLK
  5
C9
330
C6
100
AcDbEntity
  8
0
100
AcDbBlockEnd
  0
BLOCK
  5
E0
330
DE
100
AcDbEntity
  8
0
100
AcDbBlockBegin
  2
block 10
 70
     0
 10
0.0
 20
0.0
 30
0.0
  3
block 10
  1

  0
SPLINE
  5
E2
330
DE
100
AcDbEntity
  8
Layer 4
 62
   250
420
  2301728
370
    35
100
AcDbSpline
210
0.0
220
0.0
230
1.0
 70
    11
 71
     3
 72
    92
 73
    88
 74
     0
 42
0.0000000001
 43
0.0000000001
 12
1.0
 22
0.0
 32
0.0
 13
1.0
 23
0.0
 33
0.0
 40
0.0
 40
0.0
 40
0.0
 40
0.0
 40
1.0
 40
1.0
 40
1.0
 40
2.0
 40
2.0
 40
2.0
 40
3.0
 40
3.0
 40
3.0
 40
4.0
 40
4.0
 40
4.0
 40
5.0
 40
5.0
 40
5.0
 40
6.0
 40
6.0
 40
6.0
 40
7.0
 40
7.0
 40
7.0
 40
8.0
 40
8.0
 40
8.0
 40
9.0
 40
9.0
 40
9.0
 40
10.0
 40
10.0
 40
10.0
 40
11.0
 40
11.0
 40
11.0
 40
12.0
 40
12.0
 40
12.0
 40
13.0
 40
13.0
 40
13.0
 40
14.0
 40
14.0
 40
14.0
 40
15.0
 40
15.0
 40
15.0
 40
16.0
 40
16.0
 40
16.0
 40
17.0
 40
17.0
 40
17.0
 40
18.0
 40
18.0
 40
18.0
 40
19.0
 40
19.0
 40
19.0
 40
20.0
 40
20.0
 40
20.0
 40
21.0
 40
21.0
 40
21.0
 40
22.0
 40
22.0
 40
22.0
 40
23.0
 40
23.0
 40
23.0
 40
24.0
 40
24.0
 40
24.0
 40
25.0
 40
25.0
 40
25.0
 40
26.0
 40
26.0
 40
26.0
 40
27.0
 40
27.0
 40
27.0
 40
28.0
 40
28.0
 40
28.0
 40
29.0
 40
29.0
 40
29.0
 40
29.0
 10
2.45314292464231
 20
-3.419849544442969
 30
0.0
 10
2.428618990041863
 20
-3.373526556861809
 30
0.0
 10
2.376846239218396
 20
-3.289055226566608
 30
0.0
 10
2.368671594351429
 20
-3.280880581699261
 30
0.0
 10
2.338697896505807
 20
-3.250906883852314
 30
0.0
 10
2.300549553792234
 20
-3.256356647096238
 30
0.0
 10
2.270575855945298
 20
-3.286330344941847
 30
0.0
 10
2.267850974322862
 20
-3.289055226564157
 30
0.0
 10
2.221527986741096
 20
-3.340827977388509
 30
0.0
 10
2.265126092697571
 20
-3.417124662816364
 30
0.0
 10
2.265126092697571
 20
-3.417124662816364
 30
0.0
 10
3.019918302070956
 20
-4.67329509075432
 30
0.0
 10
3.019918302070956
 20
-4.67329509075432
 30
0.0
 10
3.036267591804663
 20
-4.700543906978554
 30
0.0
 10
3.038992473427011
 20
-4.703268788601015
 30
0.0
 10
3.044442236671656
 20
-4.708718551845913
 30
0.0
 10
3.068966171272607
 20
-4.733242486447951
 30
0.0
 10
3.109839395608377
 20
-4.735967368071246
 30
0.0
 10
3.139813093455287
 20
-4.705993670225662
 30
0.0
 10
3.175236554547145
 20
-4.670570209135408
 30
0.0
 10
3.16433702805879
 20
-4.616072576687408
 30
0.0
 10
3.161612146436594
 20
-4.607897931820176
 30
0.0
 10
3.156162383192329
 20
-4.586098878840965
 30
0.0
 10
3.085315461012832
 20
-4.471653850699057
 30
0.0
 10
2.88367422096353
 20
-4.139218292763149
 30
0.0
 10
2.987219722614533
 20
-4.128318766275932
 30
0.0
 10
3.074415934532536
 20
-4.057471844095791
 30
0.0
 10
3.107114514001971
 20
-4.02477326462786
 30
0.0
 10
3.229734187012161
 20
-3.90215359162314
 30
0.0
 10
3.218834660525903
 20
-3.755009984013905
 30
0.0
 10
3.21066001566078
 20
-3.665088890474919
 30
0.0
 10
3.306030872442946
 20
-3.727761167791996
 30
0.0
 10
3.420475900583642
 20
-3.711411878060234
 30
0.0
 10
3.496772586012243
 20
-3.63511519263507
 30
0.0
 10
3.556719981706126
 20
-3.575167796943878
 30
0.0
 10
3.55671998170797
 20
-3.493421348272211
 30
0.0
 10
3.529471165485909
 20
-3.411674899599964
 30
0.0
 10
3.496772586019304
 20
-3.319028924438036
 30
0.0
 10
3.412301255728145
 20
-3.190959488183884
 30
0.0
 10
3.409576374105823
 20
-3.188234606561435
 30
0.0
 10
3.390502202749516
 20
-3.169160435204282
 30
0.0
 10
3.374152913014824
 20
-3.185509724938241
 30
0.0
 10
3.368703149769927
 20
-3.190959488182898
 30
0.0
 10
3.352353860035235
 20
-3.207308777916858
 30
0.0
 10
3.357803623279791
 20
-3.218208304406526
 30
0.0
 10
3.376877794635833
 20
-3.248182002253234
 30
0.0
 10
3.461349124926751
 20
-3.387150964996928
 30
0.0
 10
3.532196047105781
 20
-3.523395046117947
 30
0.0
 10
3.46134912492209
 20
-3.594241968298454
 30
0.0
 10
3.415026137340438
 20
-3.640564955878022
 30
0.0
 10
3.363253386515998
 20
-3.599691731541027
 30
0.0
 10
3.330554807048066
 20
-3.566993152071618
 30
0.0
 10
3.292406464335478
 20
-3.528844809357336
 30
0.0
 10
3.229734187022822
 20
-3.428024189327557
 30
0.0
 10
3.18068631782155
 20
-3.351727503899601
 30
0.0
 10
3.18068631782155
 20
-3.351727503899601
 30
0.0
 10
3.041717355085031
 20
-3.114662802748677
 30
0.0
 10
3.041717355085031
 20
-3.114662802748677
 30
0.0
 10
3.022643183729002
 20
-3.084689104901982
 30
0.0
 10
2.976320196150305
 20
-3.000217774606894
 30
0.0
 10
2.954521143171929
 20
-2.967519195137725
 30
0.0
 10
2.921822563704364
 20
-2.918471325934016
 30
0.0
 10
2.875499576125667
 20
-2.833999995638966
 30
0.0
 10
2.864600049636377
 20
-2.823100469149159
 30
0.0
 10
2.834626351790756
 20
-2.793126771302198
 30
0.0
 10
2.793753127454734
 20
-2.80130141616847
 30
0.0
 10
2.766504311230247
 20
-2.828550232391732
 30
0.0
 10
2.758329666362901
 20
-2.836724877258711
 30
0.0
 10
2.714731560403621
 20
-2.885772746460741
 30
0.0
 10
2.758329666360223
 20
-2.956619668643812
 30
0.0
 10
2.758329666360223
 20
-2.956619668643812
 30
0.0
 10
3.003569012366
 20
-3.365351912007549
 30
0.0
 10
3.003569012366
 20
-3.365351912007549
 30
0.0
 10
3.071691052923301
 20
-3.471622295282239
 30
0.0
 10
3.123463803746667
 20
-3.561543388822198
 30
0.0
 10
3.137088211858077
 20
-3.586067323424009
 30
0.0
 10
3.142537975102608
 20
-3.596966849913677
 30
0.0
 10
3.218834660524084
 20
-3.836756432685572
 30
0.0
 10
3.077140816156703
 20
-3.978450277046586
 30
0.0
 10
2.989944604238321
 20
-4.06564648896104
 30
0.0
 10
2.891848865832721
 20
-4.049297199224529
 30
0.0
 10
2.796478009051249
 20
-3.953926342438788
 30
0.0
 10
2.747430139849358
 20
-3.904878473234687
 30
0.0
 10
2.709281797137275
 20
-3.844931077541296
 30
0.0
 10
2.67385833604764
 20
-3.782258800225571
 30
0.0
 10
2.67385833604764
 20
-3.782258800225571
 30
0.0
 10
2.45314292464231
 20
-3.419849544442969
 30
0.0
 10
2.45314292464231
 20
-3.419849544442969
 30
0.0
  0
ENDBLK
  5
E1
330
DE
100
AcDbEntity
  8
0
100
AcDbBlockEnd
  0
BLOCK
  5
E5
330
E3
100
AcDbEntity
  8
0
100
AcDbBlockBegin
  2
block 11
 70
     0
 10
0.0
 20
0.0
 30
0.0
  3
block 11
  1

  0
INSERT
  5
E8
330
E3
100
AcDbEntity
  8
Layer 4
100
AcDbBlockReference
  2
block 12
 10
0.0
 20
0.0
 30
0.0
  0
ENDBLK
  5
E6
330
E3
100
AcDbEntity
  8
0
100
AcDbBlockEnd
  0
BLOCK
  5
E9
330
E7
100
AcDbEntity
  8
0
100
AcDbBlockBegin
  2
block 12
 70
     0
 10
0.0
 20
0.0
 30
0.0
  3
block 12
  1

  0
SPLINE
  5
EB
330
E7
100
AcDbEntity
  8
Layer 4
 62
   250
420
  2301728
370
    35
100
AcDbSpline
210
0.0
220
0.0
230
1.0
 70
    11
 71
     3
 72
    68
 73
    64
 74
     0
 42
0.0000000001
 43
0.0000000001
 12
1.0
 22
0.0
 32
0.0
 13
1.0
 23
0.0
 33
0.0
 40
0.0
 40
0.0
 40
0.0
 40
0.0
 40
1.0
 40
1.0
 40
1.0
 40
2.0
 40
2.0
 40
2.0
 40
3.0
 40
3.0
 40
3.0
 40
4.0
 40
4.0
 40
4.0
 40
5.0
 40
5.0
 40
5.0
 40
6.0
 40
6.0
 40
6.0
 40
7.0
 40
7.0
 40
7.0
 40
8.0
 40
8.0
 40
8.0
 40
9.0
 40
9.0
 40
9.0
 40
10.0
 40
10.0
 40
10.0
 40
11.0
 40
11.0
 40
11.0
 40
12.0
 40
12.0
 40
12.0
 40
13.0
 40
13.0
 40
13.0
 40
14.0
 40
14.0
 40
14.0
 40
15.0
 40
15.0
 40
15.0
 40
16.0
 40
16.0
 40
16.0
 40
17.0
 40
17.0
 40
17.0
 40
18.0
 40
18.0
 40
18.0
 40
19.0
 40
19.0
 40
19.0
 40
20.0
 40
20.0
 40
20.0
 40
21.0
 40
21.0
 40
21.0
 40
21.0
 10
3.021467095022147
 20
-2.295765475543388
 30
0.0
 10
3.021467095022147
 20
-2.295765475543388
 30
0.0
 10
3.216333401444619
 20
-2.10089916912967
 30
0.0
 10
3.216333401444619
 20
-2.10089916912967
 30
0.0
 10
3.226363284863426
 20
-2.090869285711305
 30
0.0
 10
3.240691689747435
 20
-2.076540880827953
 30
0.0
 10
3.224930444375745
 20
-2.060779635455543
 30
0.0
 10
3.20916919900403
 20
-2.045018390083146
 30
0.0
 10
3.194840794120021
 20
-2.059346794966499
 30
0.0
 10
3.18481091070124
 20
-2.06937667838485
 30
0.0
 10
3.18481091070124
 20
-2.06937667838485
 30
0.0
 10
2.989944604278768
 20
-2.26424298479858
 30
0.0
 10
2.989944604278768
 20
-2.26424298479858
 30
0.0
 10
2.989944604278768
 20
-2.26424298479858
 30
0.0
 10
2.797943978841713
 20
-2.07224235935291
 30
0.0
 10
2.797943978841713
 20
-2.07224235935291
 30
0.0
 10
2.786481254934998
 20
-2.060779635445703
 30
0.0
 10
2.770720009563334
 20
-2.045018390073306
 30
0.0
 10
2.754958764190949
 20
-2.060779635444983
 30
0.0
 10
2.739197518818539
 20
-2.076540880816698
 30
0.0
 10
2.753525923701891
 20
-2.090869285700707
 30
0.0
 10
2.763555807120218
 20
-2.100899169119514
 30
0.0
 10
2.763555807120218
 20
-2.100899169119514
 30
0.0
 10
2.958422113533948
 20
-2.295765475541973
 30
0.0
 10
2.958422113533948
 20
-2.295765475541973
 30
0.0
 10
2.958422113533948
 20
-2.295765475541973
 30
0.0
 10
2.763555807111476
 20
-2.490631781955678
 30
0.0
 10
2.763555807111476
 20
-2.490631781955678
 30
0.0
 10
2.753525923692708
 20
-2.500661665374043
 30
0.0
 10
2.737764678320285
 20
-2.516422910745733
 30
0.0
 10
2.753525923691988
 20
-2.53218415611813
 30
0.0
 10
2.769287169063665
 20
-2.547945401490539
 30
0.0
 10
2.785048414436075
 20
-2.532184156118862
 30
0.0
 10
2.795078297854881
 20
-2.522154272700485
 30
0.0
 10
2.795078297854881
 20
-2.522154272700485
 30
0.0
 10
2.989944604277353
 20
-2.32728796628678
 30
0.0
 10
2.989944604277353
 20
-2.32728796628678
 30
0.0
 10
2.989944604277353
 20
-2.32728796628678
 30
0.0
 10
3.179079548737733
 20
-2.516422910755649
 30
0.0
 10
3.179079548737733
 20
-2.516422910755649
 30
0.0
 10
3.179079548737733
 20
-2.516422910755649
 30
0.0
 10
2.984213242315261
 20
-2.711289217169354
 30
0.0
 10
2.984213242315261
 20
-2.711289217169354
 30
0.0
 10
2.974183358896454
 20
-2.721319100587706
 30
0.0
 10
2.958422113524044
 20
-2.737080345959408
 30
0.0
 10
2.974183358895772
 20
-2.752841591331818
 30
0.0
 10
2.98994460426745
 20
-2.768602836704215
 30
0.0
 10
3.005705849639834
 20
-2.752841591332525
 30
0.0
 10
3.015735733058666
 20
-2.742811707914161
 30
0.0
 10
3.015735733058666
 20
-2.742811707914161
 30
0.0
 10
3.436990836648379
 20
-2.321556604343332
 30
0.0
 10
3.436990836648379
 20
-2.321556604343332
 30
0.0
 10
3.447020720067223
 20
-2.311526720924981
 30
0.0
 10
3.461349124951219
 20
-2.297198316041629
 30
0.0
 10
3.445587879579517
 20
-2.281437070669244
 30
0.0
 10
3.429826634207827
 20
-2.265675825296822
 30
0.0
 10
3.415498229323806
 20
-2.280004230180174
 30
0.0
 10
3.405468345904999
 20
-2.290034113598513
 30
0.0
 10
3.405468345904999
 20
-2.290034113598513
 30
0.0
 10
3.210602039482527
 20
-2.484900420012256
 30
0.0
 10
3.210602039482527
 20
-2.484900420012256
 30
0.0
 10
3.210602039482527
 20
-2.484900420012256
 30
0.0
 10
3.021467095022147
 20
-2.295765475543388
 30
0.0
 10
3.021467095022147
 20
-2.295765475543388
 30
0.0
  0
ENDBLK
  5
EA
330
E7
100
AcDbEntity
  8
0
100
AcDbBlockEnd
  0
BLOCK
  5
EF
330
ED
100
AcDbEntity
  8
0
100
AcDbBlockBegin
  2
block 13
 70
     0
 10
0.0
 20
0.0
 30
0.0
  3
block 13
  1

  0
INSERT
  5
F2
330
ED
100
AcDbEntity
  8
Layer 4
100
AcDbBlockReference
  2
block 14
 10
0.0
 20
0.0
 30
0.0
  0
ENDBLK
  5
F0
330
ED
100
AcDbEntity
  8
0
100
AcDbBlockEnd
  0
BLOCK
  5
F3
330
F1
100
AcDbEntity
  8
0
100
AcDbBlockBegin
  2
block 14
 70
     0
 10
0.0
 20
0.0
 30
0.0
  3
block 14
  1

  0
SPLINE
  5
F5
330
F1
100
AcDbEntity
  8
Layer 4
 62
   250
420
  2301728
370
    35
100
AcDbSpline
210
0.0
220
0.0
230
1.0
 70
    11
 71
     3
 72
    74
 73
    70
 74
     0
 42
0.0000000001
 43
0.0000000001
 12
1.0
 22
0.0
 32
0.0
 13
1.0
 23
0.0
 33
0.0
 40
0.0
 40
0.0
 40
0.0
 40
0.0
 40
1.0
 40
1.0
 40
1.0
 40
2.0
 40
2.0
 40
2.0
 40
3.0
 40
3.0
 40
3.0
 40
4.0
 40
4.0
 40
4.0
 40
5.0
 40
5.0
 40
5.0
 40
6.0
 40
6.0
 40
6.0
 40
7.0
 40
7.0
 40
7.0
 40
8.0
 40
8.0
 40
8.0
 40
9.0
 40
9.0
 40
9.0
 40
10.0
 40
10.0
 40
10.0
 40
11.0
 40
11.0
 40
11.0
 40
12.0
 40
12.0
 40
12.0
 40
13.0
 40
13.0
 40
13.0
 40
14.0
 40
14.0
 40
14.0
 40
15.0
 40
15.0
 40
15.0
 40
16.0
 40
16.0
 40
16.0
 40
17.0
 40
17.0
 40
17.0
 40
18.0
 40
18.0
 40
18.0
 40
19.0
 40
19.0
 40
19.0
 40
20.0
 40
20.0
 40
20.0
 40
21.0
 40
21.0
 40
21.0
 40
22.0
 40
22.0
 40
22.0
 40
23.0
 40
23.0
 40
23.0
 40
23.0
 10
2.966949261832667
 20
-1.116387480100385
 30
0.0
 10
3.04743296048598
 20
-1.035903781450672
 30
0.0
 10
3.160110138598164
 20
-1.033604247206006
 30
0.0
 10
3.270487782460654
 20
-1.143981891073435
 30
0.0
 10
3.396962166053059
 20
-1.270456274671525
 30
0.0
 10
3.360169618095485
 20
-1.385432987030016
 30
0.0
 10
3.302681261914547
 20
-1.44292134320839
 30
0.0
 10
3.261289645464256
 20
-1.484312959656824
 30
0.0
 10
3.157810604339047
 20
-1.564796658306032
 30
0.0
 10
3.054331563216137
 20
-1.54410085007903
 30
0.0
 10
3.102621782408156
 20
-1.495810630889197
 30
0.0
 10
3.079626439937296
 20
-1.449819945944939
 30
0.0
 10
3.056631097465982
 20
-1.426824603472563
 30
0.0
 10
3.024437618006076
 20
-1.39463112401123
 30
0.0
 10
2.976147398815119
 20
-1.396930658257349
 30
0.0
 10
2.943953919353774
 20
-1.429124137717229
 30
0.0
 10
2.916359508386913
 20
-1.456718548682852
 30
0.0
 10
2.904861837149892
 20
-1.505008767873506
 30
0.0
 10
2.946253453598338
 20
-1.546400384323784
 30
0.0
 10
3.042833891977992
 20
-1.642980822707783
 30
0.0
 10
3.21069989202358
 20
-1.599289672014999
 30
0.0
 10
3.33487474137444
 20
-1.475114822669723
 30
0.0
 10
3.47744586470319
 20
-1.332543699347365
 30
0.0
 10
3.479745398954778
 20
-1.137083288336571
 30
0.0
 10
3.378565892080853
 20
-1.035903781458099
 30
0.0
 10
3.298082193431127
 20
-0.955420082804773
 30
0.0
 10
3.15321153585871
 20
-0.9393233430712075
 30
0.0
 10
3.017539015272711
 20
-1.029005178708439
 30
0.0
 10
3.084225508444363
 20
-0.8841345211371959
 30
0.0
 10
3.04743296049198
 20
-0.7691578087770247
 30
0.0
 10
2.983046001572207
 20
-0.7047708498543586
 30
0.0
 10
2.902562302922506
 20
-0.6242871512010323
 30
0.0
 10
2.750793042607426
 20
-0.6564806306582474
 30
0.0
 10
2.63581633024555
 20
-0.7714573430149828
 30
0.0
 10
2.523139152130891
 20
-0.8841345211245767
 30
0.0
 10
2.490945672667069
 20
-1.026705644449423
 30
0.0
 10
2.573728905563937
 20
-1.109488877350005
 30
0.0
 10
2.608221919270958
 20
-1.14398189105858
 30
0.0
 10
2.649613535720416
 20
-1.139382822565131
 30
0.0
 10
2.679507480934531
 20
-1.109488877352379
 30
0.0
 10
2.711700960395864
 20
-1.077295397892474
 30
0.0
 10
2.709401426149632
 20
-1.033604247195875
 30
0.0
 10
2.68180701518401
 20
-1.006009836229015
 30
0.0
 10
2.651913069971246
 20
-0.9761158910149242
 30
0.0
 10
2.608221919274748
 20
-0.9738163567667469
 30
0.0
 10
2.573728905566286
 20
-1.00371030197941
 30
0.0
 10
2.566830302826554
 20
-0.9232266033277511
 30
0.0
 10
2.624318659008023
 20
-0.842742904677507
 30
0.0
 10
2.663410741211084
 20
-0.8036508224762148
 30
0.0
 10
2.709401426155847
 20
-0.7576601375335231
 30
0.0
 10
2.796783727549828
 20
-0.7162685210861124
 30
0.0
 10
2.884166028940953
 20
-0.8036508224811665
 30
0.0
 10
2.927857179636516
 20
-0.8473419731786871
 30
0.0
 10
2.962350193342931
 20
-0.9094293978534916
 30
0.0
 10
2.96464972758881
 20
-0.9669177540332172
 30
0.0
 10
2.971548330328794
 20
-1.038203315696133
 30
0.0
 10
2.943953919361832
 20
-1.070396795156127
 30
0.0
 10
2.897963234416855
 20
-1.125585617087574
 30
0.0
 10
2.874967891944378
 20
-1.153180028053298
 30
0.0
 10
2.872668357697135
 20
-1.155479562300427
 30
0.0
 10
2.86806928920265
 20
-1.16007863079471
 30
0.0
 10
2.865769754955408
 20
-1.162378165041851
 30
0.0
 10
2.858871152213604
 20
-1.17387583627761
 30
0.0
 10
2.870368823449287
 20
-1.185373507513797
 30
0.0
 10
2.884166028932085
 20
-1.19917071299724
 30
0.0
 10
2.89336416592103
 20
-1.189972576008712
 30
0.0
 10
2.911760439898946
 20
-1.17157630203163
 30
0.0
 10
2.911760439898946
 20
-1.17157630203163
 30
0.0
 10
2.966949261832667
 20
-1.116387480100385
 30
0.0
 10
2.966949261832667
 20
-1.116387480100385
 30
0.0
  0
ENDBLK
  5
F4
330
F1
100
AcDbEntity
  8
0
100
AcDbBlockEnd
  0
ENDSEC
  0
SECTION
  2
ENTITIES
  0
INSERT
  5
42
330
1F
100
AcDbEntity
  8
Layer 3
100
AcDbBlockReference
  2
block 2
 10
0.0
 20
0.0
 30
0.0
  0
INSERT
  5
55
330
1F
100
AcDbEntity
  8
Layer 3
100
AcDbBlockReference
  2
block 3
 10
0.0
 20
0.0
 30
0.0
  0
INSERT
  5
68
330
1F
100
AcDbEntity
  8
Layer 3
100
AcDbBlockReference
  2
block 4
 10
0.0
 20
0.0
 30
0.0
  0
INSERT
  5
7B
330
1F
100
AcDbEntity
  8
Layer 3
100
AcDbBlockReference
  2
block 5
 10
0.0
 20
0.0
 30
0.0
  0
INSERT
  5
8E
330
1F
100
AcDbEntity
  8
Layer 3
100
AcDbBlockReference
  2
block 6
 10
0.0
 20
0.0
 30
0.0
  0
INSERT
  5
A1
330
1F
100
AcDbEntity
  8
Layer 3
100
AcDbBlockReference
  2
block 7
 10
0.0
 20
0.0
 30
0.0
  0
INSERT
  5
B4
330
1F
100
AcDbEntity
  8
Layer 3
100
AcDbBlockReference
  2
block 8
 10
0.0
 20
0.0
 30
0.0
  0
INSERT
  5
C7
330
1F
100
AcDbEntity
  8
Layer 3
100
AcDbBlockReference
  2
block 9
 10
0.0
 20
0.0
 30
0.0
  0
INSERT
  5
DF
330
1F
100
AcDbEntity
  8
Layer 4
100
AcDbBlockReference
  2
block 10
 10
0.0
 20
0.0
 30
0.0
  0
INSERT
  5
E4
330
1F
100
AcDbEntity
  8
Layer 4
100
AcDbBlockReference
  2
block 11
 10
0.0
 20
0.0
 30
0.0
  0
SPLINE
  5
EC
330
1F
100
AcDbEntity
  8
Layer 4
 62
   250
420
  2301728
370
    35
100
AcDbSpline
210
0.0
220
0.0
230
1.0
 70
    11
 71
     3
 72
    20
 73
    16
 74
     0
 42
0.0000000001
 43
0.0000000001
 12
1.0
 22
0.0
 32
0.0
 13
1.0
 23
0.0
 33
0.0
 40
0.0
 40
0.0
 40
0.0
 40
0.0
 40
1.0
 40
1.0
 40
1.0
 40
2.0
 40
2.0
 40
2.0
 40
3.0
 40
3.0
 40
3.0
 40
4.0
 40
4.0
 40
4.0
 40
5.0
 40
5.0
 40
5.0
 40
5.0
 10
4.875798389204634
 20
-3.475709617756321
 30
0.0
 10
4.875798389204634
 20
-3.475709617756321
 30
0.0
 10
2.989944604209229
 20
-5.361563402667055
 30
0.0
 10
2.989944604209229
 20
-5.361563402667055
 30
0.0
 10
2.989944604209229
 20
-5.361563402667055
 30
0.0
 10
1.104090819298508
 20
-3.47570961767165
 30
0.0
 10
1.104090819298508
 20
-3.47570961767165
 30
0.0
 10
1.104090819298508
 20
-3.47570961767165
 30
0.0
 10
2.777812569986189
 20
-1.80198786705909
 30
0.0
 10
2.777812569986189
 20
-1.80198786705909
 30
0.0
 10
2.942812569944953
 20
-1.801987867062804
 30
0.0
 10
3.037076638633324
 20
-1.801987867064914
 30
0.0
 10
3.202076638592063
 20
-1.801987867068615
 30
0.0
 10
3.202076638592063
 20
-1.801987867068615
 30
0.0
 10
4.875798389204634
 20
-3.475709617756321
 30
0.0
 10
4.875798389204634
 20
-3.475709617756321
 30
0.0
  0
INSERT
  5
EE
330
1F
100
AcDbEntity
  8
Layer 4
100
AcDbBlockReference
  2
block 13
 10
0.0
 20
0.0
 30
0.0
  0
ENDSEC
  0
SECTION
  2
OBJECTS
  0
DICTIONARY
  5
C
330
0
100
AcDbDictionary
281
     1
  3
ACAD_GROUP
350
D
  3
ACAD_LAYOUT
350
1A
  3
ACAD_MATERIAL
350
3B
  3
ACAD_MLEADERSTYLE
350
F7
  3
ACAD_MLINESTYLE
350
17
  3
ACAD_PLOTSETTINGS
350
19
  3
ACAD_PLOTSTYLENAME
350
E
  3
ACAD_TABLESTYLE
350
F6
  3
ACAD_VISUALSTYLE
350
2A
  0
SUN
  5
3F
330
29
100
AcDbSun
 90
        1
290
     0
 63
     7
421
 16777215
 40
1.0
291
     1
 91
  2455826
 92
 54000000
292
     0
 70
     2
 71
   256
280
     1
  0
DICTIONARY
  5
D
102
{ACAD_REACTORS
330
C
102
}
330
C
100
AcDbDictionary
281
     1
  0
DICTIONARY
  5
1A
102
{ACAD_REACTORS
330
C
102
}
330
C
100
AcDbDictionary
281
     1
  3
Layout1
350
1E
  3
Layout2
350
26
  3
Model
350
22
  0
DICTIONARY
  5
3B
102
{ACAD_REACTORS
330
C
102
}
330
C
100
AcDbDictionary
281
     1
  3
ByBlock
350
3D
  3
ByLayer
350
3C
  3
Global
350
3E
  0
DICTIONARY
  5
F7
102
{ACAD_REACTORS
330
C
102
}
330
C
100
AcDbDictionary
281
     1
  0
DICTIONARY
  5
17
102
{ACAD_REACTORS
330
C
102
}
330
C
100
AcDbDictionary
281
     1
  3
Standard
350
18
  0
DICTIONARY
  5
19
102
{ACAD_REACTORS
330
C
102
}
330
C
100
AcDbDictionary
281
     1
  0
ACDBDICTIONARYWDFLT
  5
E
102
{ACAD_REACTORS
330
C
102
}
330
C
100
AcDbDictionary
281
     1
  3
Normal
350
F
100
AcDbDictionaryWithDefault
340
F
  0
DICTIONARY
  5
F6
102
{ACAD_REACTORS
330
C
102
}
330
C
100
AcDbDictionary
281
     1
  0
DICTIONARY
  5
2A
102
{ACAD_REACTORS
330
C
102
}
330
C
100
AcDbDictionary
281
     1
  3
2dWireframe
350
2F
  3
3D Hidden
350
31
  3
3dWireframe
350
30
  3
Basic
350
32
  3
Brighten
350
36
  3
ColorChange
350
3A
  3
Conceptual
350
34
  3
Dim
350
35
  3
Facepattern
350
39
  3
Flat
350
2B
  3
FlatWithEdges
350
2C
  3
Gouraud
350
2D
  3
GouraudWithEdges
350
2E
  3
Linepattern
350
38
  3
Realistic
350
33
  3
Thicken
350
37
  0
LAYOUT
  5
1E
102
{ACAD_REACTORS
330
1A
102
}
330
1A
100
AcDbPlotSettings
  1

  2
none_device
  4

  6

 40
0.0
 41
0.0
 42
0.0
 43
0.0
 44
0.0
 45
0.0
 46
0.0
 47
0.0
 48
0.0
 49
0.0
140
0.0
141
0.0
142
1.0
143
1.0
 70
   688
 72
     0
 73
     0
 74
     5
  7

 75
    16
 76
     0
 77
     2
 78
   300
147
1.0
148
0.0
149
0.0
100
AcDbLayout
  1
Layout1
 70
     1
 71
     1
 10
0.0
 20
0.0
 11
12.0
 21
9.0
 12
0.0
 22
0.0
 32
0.0
 14
1.000000000000000E+20
 24
1.000000000000000E+20
 34
1.000000000000000E+20
 15
-1.000000000000000E+20
 25
-1.000000000000000E+20
 35
-1.000000000000000E+20
146
0.0
 13
0.0
 23
0.0
 33
0.0
 16
1.0
 26
0.0
 36
0.0
 17
0.0
 27
1.0
 37
0.0
 76
     0
330
1B
  0
LAYOUT
  5
26
102
{ACAD_REACTORS
330
1A
102
}
330
1A
100
AcDbPlotSettings
  1

  2
none_device
  4

  6

 40
0.0
 41
0.0
 42
0.0
 43
0.0
 44
0.0
 45
0.0
 46
0.0
 47
0.0
 48
0.0
 49
0.0
140
0.0
141
0.0
142
1.0
143
1.0
 70
   688
 72
     0
 73
     0
 74
     5
  7

 75
    16
 76
     0
 77
     2
 78
   300
147
1.0
148
0.0
149
0.0
100
AcDbLayout
  1
Layout2
 70
     1
 71
     2
 10
0.0
 20
0.0
 11
0.0
 21
0.0
 12
0.0
 22
0.0
 32
0.0
 14
0.0
 24
0.0
 34
0.0
 15
0.0
 25
0.0
 35
0.0
146
0.0
 13
0.0
 23
0.0
 33
0.0
 16
1.0
 26
0.0
 36
0.0
 17
0.0
 27
1.0
 37
0.0
 76
     0
330
23
  0
LAYOUT
  5
22
102
{ACAD_REACTORS
330
1A
102
}
330
1A
100
AcDbPlotSettings
  1

  2
none_device
  4

  6

 40
0.0
 41
0.0
 42
0.0
 43
0.0
 44
0.0
 45
0.0
 46
0.0
 47
0.0
 48
0.0
 49
0.0
140
0.0
141
0.0
142
1.0
143
1.0
 70
  1712
 72
     0
 73
     0
 74
     0
  7

 75
     0
 76
     0
 77
     2
 78
   300
147
1.0
148
0.0
149
0.0
100
AcDbLayout
  1
Model
 70
     1
 71
     0
 10
0.0
 20
0.0
 11
12.0
 21
9.0
 12
0.0
 22
0.0
 32
0.0
 14
1.000000000000000E+20
 24
1.000000000000000E+20
 34
1.000000000000000E+20
 15
-1.000000000000000E+20
 25
-1.000000000000000E+20
 35
-1.000000000000000E+20
146
0.0
 13
0.0
 23
0.0
 33
0.0
 16
1.0
 26
0.0
 36
0.0
 17
0.0
 27
1.0
 37
0.0
 76
     0
330
1F
331
29
  0
MATERIAL
  5
3D
102
{ACAD_REACTORS
330
3B
102
}
330
3B
100
AcDbMaterial
  1
ByBlock
 72
     1
 94
      127
  0
MATERIAL
  5
3C
102
{ACAD_REACTORS
330
3B
102
}
330
3B
100
AcDbMaterial
  1
ByLayer
 72
     1
 94
      127
  0
MATERIAL
  5
3E
102
{ACAD_REACTORS
330
3B
102
}
330
3B
100
AcDbMaterial
  1
Global
 72
     1
 94
      127
  0
MLINESTYLE
  5
18
102
{ACAD_REACTORS
330
17
102
}
330
17
100
AcDbMlineStyle
  2
Standard
 70
     0
  3

 62
   256
 51
90.0
 52
90.0
 71
     2
 49
0.5
 62
   256
  6
BYLAYER
 49
-0.5
 62
   256
  6
BYLAYER
  0
ACDBPLACEHOLDER
  5
F
102
{ACAD_REACTORS
330
E
102
}
330
E
  0
VISUALSTYLE
  5
2F
102
{ACAD_REACTORS
330
2A
102
}
330
2A
100
AcDbVisualStyle
  2
2dWireframe
 70
     4
177
     2
291
     0
 71
     0
176
     1
 72
     2
176
     1
 73
     0
176
     1
 90
        0
176
     1
 40
-0.6
176
     1
 41
-30.0
176
     1
 62
     5
 63
     7
421
 16777215
176
     1
 74
     1
176
     1
 91
        4
176
     1
 64
     7
176
     1
 65
   257
176
     1
 75
     1
176
     1
175
     1
176
     1
 42
1.0
176
     1
 92
        0
176
     1
 66
   257
176
     1
 43
1.0
176
     1
 76
     1
176
     1
 77
     6
176
     1
 78
     2
176
     1
 67
     7
176
     1
 79
     5
176
     1
170
     0
176
     1
171
     0
176
     1
290
     0
176
     1
 93
        1
176
     1
 44
0.0
176
     1
173
     0
176
     1
  0
VISUALSTYLE
  5
31
102
{ACAD_REACTORS
330
2A
102
}
330
2A
100
AcDbVisualStyle
  2
3D Hidden
 70
     6
177
     2
291
     0
 71
     1
176
     1
 72
     2
176
     1
 73
     2
176
     1
 90
        0
176
     1
 40
-0.6
176
     1
 41
-30.0
176
     1
 62
     5
 63
     7
421
 16777215
176
     1
 74
     2
176
     1
 91
        2
176
     1
 64
     7
176
     1
 65
   257
176
     1
 75
     2
176
     1
175
     1
176
     1
 42
40.0
176
     1
 92
        0
176
     1
 66
   257
176
     1
 43
1.0
176
     1
 76
     1
176
     1
 77
     6
176
     1
 78
     2
176
     1
 67
     7
176
     1
 79
     3
176
     1
170
     0
176
     1
171
     0
176
     1
290
     0
176
     1
 93
        1
176
     1
 44
0.0
176
     1
173
     0
176
     1
  0
VISUALSTYLE
  5
30
102
{ACAD_REACTORS
330
2A
102
}
330
2A
100
AcDbVisualStyle
  2
3dWireframe
 70
     5
177
     2
291
     0
 71
     0
176
     1
 72
     2
176
     1
 73
     0
176
     1
 90
        0
176
     1
 40
-0.6
176
     1
 41
-30.0
176
     1
 62
     5
 63
     7
421
 16777215
176
     1
 74
     1
176
     1
 91
        4
176
     1
 64
     7
176
     1
 65
   257
176
     1
 75
     1
176
     1
175
     1
176
     1
 42
1.0
176
     1
 92
        0
176
     1
 66
   257
176
     1
 43
1.0
176
     1
 76
     1
176
     1
 77
     6
176
     1
 78
     2
176
     1
 67
     7
176
     1
 79
     5
176
     1
170
     0
176
     1
171
     0
176
     1
290
     0
176
     1
 93
        1
176
     1
 44
0.0
176
     1
173
     0
176
     1
  0
VISUALSTYLE
  5
32
102
{ACAD_REACTORS
330
2A
102
}
330
2A
100
AcDbVisualStyle
  2
Basic
 70
     7
177
     2
291
     1
 71
     1
176
     1
 72
     0
176
     1
 73
     1
176
     1
 90
        0
176
     1
 40
-0.6
176
     1
 41
-30.0
176
     1
 62
     5
 63
     7
421
 16777215
176
     1
 74
     0
176
     1
 91
        4
176
     1
 64
     7
176
     1
 65
   257
176
     1
 75
     1
176
     1
175
     1
176
     1
 42
1.0
176
     1
 92
        8
176
     1
 66
     7
176
     1
 43
1.0
176
     1
 76
     1
176
     1
 77
     6
176
     1
 78
     2
176
     1
 67
     7
176
     1
 79
     5
176
     1
170
     0
176
     1
171
     0
176
     1
290
     0
176
     1
 93
        1
176
     1
 44
0.0
176
     1
173
     0
176
     1
  0
VISUALSTYLE
  5
36
102
{ACAD_REACTORS
330
2A
102
}
330
2A
100
AcDbVisualStyle
  2
Brighten
 70
    12
177
     2
291
     1
 71
     2
176
     1
 72
     2
176
     1
 73
     0
176
     1
 90
        0
176
     1
 40
-0.6
176
     1
 41
-30.0
176
     1
 62
     5
 63
     7
421
 16777215
176
     1
 74
     1
176
     1
 91
        4
176
     1
 64
     7
176
     1
 65
   257
176
     1
 75
     1
176
     1
175
     1
176
     1
 42
1.0
176
     1
 92
        8
176
     1
 66
     7
176
     1
 43
1.0
176
     1
 76
     1
176
     1
 77
     6
176
     1
 78
     2
176
     1
 67
     7
176
     1
 79
     5
176
     1
170
     0
176
     1
171
     0
176
     1
290
     0
176
     1
 93
        1
176
     1
 44
50.0
176
     1
173
     0
176
     1
  0
VISUALSTYLE
  5
3A
102
{ACAD_REACTORS
330
2A
102
}
330
2A
100
AcDbVisualStyle
  2
ColorChange
 70
    16
177
     2
291
     1
 71
     2
176
     1
 72
     2
176
     1
 73
     3
176
     1
 90
        0
176
     1
 40
-0.6
176
     1
 41
-30.0
176
     1
 62
     5
 63
     8
421
  8421504
176
     1
 74
     1
176
     1
 91
        4
176
     1
 64
     7
176
     1
 65
   257
176
     1
 75
     1
176
     1
175
     1
176
     1
 42
1.0
176
     1
 92
        8
176
     1
 66
     8
424
  8421504
176
     1
 43
1.0
176
     1
 76
     1
176
     1
 77
     6
176
     1
 78
     2
176
     1
 67
     7
176
     1
 79
     5
176
     1
170
     0
176
     1
171
     0
176
     1
290
     0
176
     1
 93
        1
176
     1
 44
0.0
176
     1
173
     0
176
     1
  0
VISUALSTYLE
  5
34
102
{ACAD_REACTORS
330
2A
102
}
330
2A
100
AcDbVisualStyle
  2
Conceptual
 70
     9
177
     2
291
     0
 71
     3
176
     1
 72
     2
176
     1
 73
     0
176
     1
 90
        0
176
     1
 40
-0.6
176
     1
 41
-30.0
176
     1
 62
     5
 63
     7
421
 16777215
176
     1
 74
     2
176
     1
 91
        2
176
     1
 64
     7
176
     1
 65
   257
176
     1
 75
     1
176
     1
175
     1
176
     1
 42
40.0
176
     1
 92
        8
176
     1
 66
     7
176
     1
 43
1.0
176
     1
 76
     1
176
     1
 77
     6
176
     1
 78
     2
176
     1
 67
     7
176
     1
 79
     3
176
     1
170
     0
176
     1
171
     0
176
     1
290
     0
176
     1
 93
        1
176
     1
 44
0.0
176
     1
173
     0
176
     1
  0
VISUALSTYLE
  5
35
102
{ACAD_REACTORS
330
2A
102
}
330
2A
100
AcDbVisualStyle
  2
Dim
 70
    11
177
     2
291
     1
 71
     2
176
     1
 72
     2
176
     1
 73
     0
176
     1
 90
        0
176
     1
 40
-0.6
176
     1
 41
-30.0
176
     1
 62
     5
 63
     7
421
 16777215
176
     1
 74
     1
176
     1
 91
        4
176
     1
 64
     7
176
     1
 65
   257
176
     1
 75
     1
176
     1
175
     1
176
     1
 42
1.0
176
     1
 92
        8
176
     1
 66
     7
176
     1
 43
1.0
176
     1
 76
     1
176
     1
 77
     6
176
     1
 78
     2
176
     1
 67
     7
176
     1
 79
     5
176
     1
170
     0
176
     1
171
     0
176
     1
290
     0
176
     1
 93
        1
176
     1
 44
-50.0
176
     1
173
     0
176
     1
  0
VISUALSTYLE
  5
39
102
{ACAD_REACTORS
330
2A
102
}
330
2A
100
AcDbVisualStyle
  2
Facepattern
 70
    15
177
     2
291
     1
 71
     2
176
     1
 72
     2
176
     1
 73
     0
176
     1
 90
        0
176
     1
 40
-0.6
176
     1
 41
-30.0
176
     1
 62
     5
 63
     7
421
 16777215
176
     1
 74
     1
176
     1
 91
        4
176
     1
 64
     7
176
     1
 65
   257
176
     1
 75
     1
176
     1
175
     1
176
     1
 42
1.0
176
     1
 92
        8
176
     1
 66
     7
176
     1
 43
1.0
176
     1
 76
     1
176
     1
 77
     6
176
     1
 78
     2
176
     1
 67
     7
176
     1
 79
     5
176
     1
170
     0
176
     1
171
     0
176
     1
290
     0
176
     1
 93
        1
176
     1
 44
0.0
176
     1
173
     0
176
     1
  0
VISUALSTYLE
  5
2B
102
{ACAD_REACTORS
330
2A
102
}
330
2A
100
AcDbVisualStyle
  2
Flat
 70
     0
177
     2
291
     1
 71
     2
176
     1
 72
     1
176
     1
 73
     1
176
     1
 90
        2
176
     1
 40
-0.6
176
     1
 41
30.0
176
     1
 62
     5
 63
     7
421
 16777215
176
     1
 74
     0
176
     1
 91
        4
176
     1
 64
     7
176
     1
 65
   257
176
     1
 75
     1
176
     1
175
     1
176
     1
 42
1.0
176
     1
 92
        8
176
     1
 66
     7
176
     1
 43
1.0
176
     1
 76
     1
176
     1
 77
     6
176
     1
 78
     2
176
     1
 67
     7
176
     1
 79
     5
176
     1
170
     0
176
     1
171
     0
176
     1
290
     0
176
     1
 93
       13
176
     1
 44
0.0
176
     1
173
     0
176
     1
  0
VISUALSTYLE
  5
2C
102
{ACAD_REACTORS
330
2A
102
}
330
2A
100
AcDbVisualStyle
  2
FlatWithEdges
 70
     1
177
     2
291
     1
 71
     2
176
     1
 72
     1
176
     1
 73
     1
176
     1
 90
        2
176
     1
 40
-0.6
176
     1
 41
30.0
176
     1
 62
     5
 63
     7
421
 16777215
176
     1
 74
     1
176
     1
 91
        4
176
     1
 64
     7
176
     1
 65
   257
176
     1
 75
     1
176
     1
175
     1
176
     1
 42
1.0
176
     1
 92
        0
176
     1
 66
   257
176
     1
 43
1.0
176
     1
 76
     1
176
     1
 77
     6
176
     1
 78
     2
176
     1
 67
     7
176
     1
 79
     5
176
     1
170
     0
176
     1
171
     0
176
     1
290
     0
176
     1
 93
       13
176
     1
 44
0.0
176
     1
173
     0
176
     1
  0
VISUALSTYLE
  5
2D
102
{ACAD_REACTORS
330
2A
102
}
330
2A
100
AcDbVisualStyle
  2
Gouraud
 70
     2
177
     2
291
     1
 71
     2
176
     1
 72
     2
176
     1
 73
     1
176
     1
 90
        2
176
     1
 40
-0.6
176
     1
 41
30.0
176
     1
 62
     5
 63
     7
421
 16777215
176
     1
 74
     0
176
     1
 91
        4
176
     1
 64
     7
176
     1
 65
   257
176
     1
 75
     1
176
     1
175
     1
176
     1
 42
1.0
176
     1
 92
        0
176
     1
 66
     7
176
     1
 43
1.0
176
     1
 76
     1
176
     1
 77
     6
176
     1
 78
     2
176
     1
 67
     7
176
     1
 79
     5
176
     1
170
     0
176
     1
171
     0
176
     1
290
     0
176
     1
 93
       13
176
     1
 44
0.0
176
     1
173
     0
176
     1
  0
VISUALSTYLE
  5
2E
102
{ACAD_REACTORS
330
2A
102
}
330
2A
100
AcDbVisualStyle
  2
GouraudWithEdges
 70
     3
177
     2
291
     1
 71
     2
176
     1
 72
     2
176
     1
 73
     1
176
     1
 90
        2
176
     1
 40
-0.6
176
     1
 41
30.0
176
     1
 62
     5
 63
     7
421
 16777215
176
     1
 74
     1
176
     1
 91
        4
176
     1
 64
     7
176
     1
 65
   257
176
     1
 75
     1
176
     1
175
     1
176
     1
 42
1.0
176
     1
 92
        0
176
     1
 66
   257
176
     1
 43
1.0
176
     1
 76
     1
176
     1
 77
     6
176
     1
 78
     2
176
     1
 67
     7
176
     1
 79
     5
176
     1
170
     0
176
     1
171
     0
176
     1
290
     0
176
     1
 93
       13
176
     1
 44
0.0
176
     1
173
     0
176
     1
  0
VISUALSTYLE
  5
38
102
{ACAD_REACTORS
330
2A
102
}
330
2A
100
AcDbVisualStyle
  2
Linepattern
 70
    14
177
     2
291
     1
 71
     2
176
     1
 72
     2
176
     1
 73
     0
176
     1
 90
        0
176
     1
 40
-0.6
176
     1
 41
-30.0
176
     1
 62
     5
 63
     7
421
 16777215
176
     1
 74
     1
176
     1
 91
        4
176
     1
 64
     7
176
     1
 65
   257
176
     1
 75
     7
176
     1
175
     7
176
     1
 42
1.0
176
     1
 92
        8
176
     1
 66
     7
176
     1
 43
1.0
176
     1
 76
     1
176
     1
 77
     6
176
     1
 78
     2
176
     1
 67
     7
176
     1
 79
     5
176
     1
170
     0
176
     1
171
     0
176
     1
290
     0
176
     1
 93
        1
176
     1
 44
0.0
176
     1
173
     0
176
     1
  0
VISUALSTYLE
  5
33
102
{ACAD_REACTORS
330
2A
102
}
330
2A
100
AcDbVisualStyle
  2
Realistic
 70
     8
177
     2
291
     0
 71
     2
176
     1
 72
     2
176
     1
 73
     0
176
     1
 90
        0
176
     1
 40
-0.6
176
     1
 41
-30.0
176
     1
 62
     5
 63
     7
421
 16777215
176
     1
 74
     1
176
     1
 91
        0
176
     1
 64
     7
176
     1
 65
   257
176
     1
 75
     1
176
     1
175
     1
176
     1
 42
1.0
176
     1
 92
        8
176
     1
 66
     8
424
  7895160
176
     1
 43
1.0
176
     1
 76
     1
176
     1
 77
     6
176
     1
 78
     2
176
     1
 67
     7
176
     1
 79
     5
176
     1
170
     0
176
     1
171
     0
176
     1
290
     0
176
     1
 93
       13
176
     1
 44
0.0
176
     1
173
     0
176
     1
  0
VISUALSTYLE
  5
37
102
{ACAD_REACTORS
330
2A
102
}
330
2A
100
AcDbVisualStyle
  2
Thicken
 70
    13
177
     2
291
     1
 71
     2
176
     1
 72
     2
176
     1
 73
     0
176
     1
 90
        0
176
     1
 40
-0.6
176
     1
 41
-30.0
176
     1
 62
     5
 63
     7
421
 16777215
176
     1
 74
     1
176
     1
 91
        4
176
     1
 64
     7
176
     1
 65
   257
176
     1
 75
     1
176
     1
175
     1
176
     1
 42
1.0
176
     1
 92
       12
176
     1
 66
     7
176
     1
 43
1.0
176
     1
 76
     1
176
     1
 77
     6
176
     1
 78
     2
176
     1
 67
     7
176
     1
 79
     5
176
     1
170
     0
176
     1
171
     0
176
     1
290
     0
176
     1
 93
        1
176
     1
 44
0.0
176
     1
173
     0
176
     1
  0
ENDSEC
  0
EOF
